<svg id="Illustration" xmlns="http://www.w3.org/2000/svg" xmlns:xlink="http://www.w3.org/1999/xlink" viewBox="0 0 2224.96 1415.16"><defs><style>.cls-1{mask:url(#mask);}.cls-2{mix-blend-mode:multiply;fill:url(#linear-gradient);}.cls-3{fill:url(#linear-gradient-2);}.cls-4{fill:#bdd0fb;}.cls-5{fill:#dce5fe;}.cls-6{fill:#91b3fa;}.cls-7{fill:#7d97f4;}.cls-8{fill:url(#linear-gradient-3);}.cls-9{fill:url(#linear-gradient-4);}.cls-10{fill:url(#linear-gradient-5);}.cls-11{fill:url(#linear-gradient-6);}.cls-12{fill:url(#linear-gradient-7);}.cls-13{fill:url(#linear-gradient-8);}.cls-14{fill:url(#linear-gradient-9);}.cls-15{fill:url(#linear-gradient-10);}.cls-16{fill:url(#linear-gradient-11);}.cls-17{fill:url(#linear-gradient-12);}.cls-18{fill:url(#linear-gradient-13);}.cls-19{fill:url(#linear-gradient-14);}.cls-20{fill:url(#linear-gradient-15);}.cls-21{fill:url(#linear-gradient-16);}.cls-22{fill:url(#linear-gradient-17);}.cls-23{fill:url(#linear-gradient-18);}.cls-24{fill:url(#linear-gradient-19);}.cls-25{fill:url(#linear-gradient-20);}.cls-26{fill:url(#linear-gradient-21);}.cls-27{fill:url(#linear-gradient-22);}.cls-28{fill:url(#linear-gradient-23);}.cls-29{fill:url(#linear-gradient-24);}.cls-30{fill:url(#linear-gradient-25);}.cls-31{fill:url(#linear-gradient-26);}.cls-32{fill:url(#linear-gradient-27);}.cls-33{fill:url(#linear-gradient-28);}.cls-34{fill:url(#linear-gradient-29);}.cls-35{fill:url(#linear-gradient-30);}.cls-36{fill:url(#linear-gradient-31);}.cls-37{fill:url(#linear-gradient-32);}.cls-38{fill:url(#linear-gradient-33);}.cls-39{fill:url(#linear-gradient-34);}.cls-40{fill:url(#linear-gradient-35);}.cls-41{fill:url(#linear-gradient-36);}.cls-42{fill:url(#linear-gradient-37);}.cls-43{fill:url(#linear-gradient-38);}.cls-44{fill:url(#linear-gradient-39);}.cls-45{fill:url(#linear-gradient-40);}.cls-46{fill:url(#linear-gradient-41);}.cls-47{fill:url(#linear-gradient-42);}.cls-48{fill:url(#linear-gradient-43);}.cls-49{fill:url(#linear-gradient-44);}.cls-50{fill:url(#linear-gradient-45);}.cls-51{fill:url(#linear-gradient-46);}.cls-52{fill:url(#linear-gradient-47);}.cls-53{fill:url(#linear-gradient-48);}.cls-54{fill:url(#linear-gradient-49);}.cls-55{fill:url(#linear-gradient-50);}.cls-56{fill:url(#linear-gradient-51);}.cls-57{fill:url(#linear-gradient-52);}.cls-58{fill:url(#linear-gradient-53);}.cls-59{fill:url(#linear-gradient-54);}.cls-60{fill:url(#linear-gradient-55);}.cls-61{fill:url(#linear-gradient-56);}.cls-62{fill:url(#linear-gradient-57);}.cls-63{fill:url(#linear-gradient-58);}.cls-64{fill:url(#linear-gradient-59);}.cls-65{fill:url(#linear-gradient-60);}.cls-66{fill:url(#linear-gradient-61);}.cls-67{fill:url(#linear-gradient-62);}.cls-68{fill:url(#linear-gradient-63);}.cls-69{fill:url(#linear-gradient-64);}.cls-70{fill:url(#linear-gradient-65);}.cls-71{fill:url(#linear-gradient-66);}.cls-72{fill:url(#linear-gradient-67);}.cls-73{fill:url(#linear-gradient-68);}.cls-74{fill:url(#linear-gradient-69);}.cls-75{fill:url(#linear-gradient-70);}.cls-76{fill:url(#linear-gradient-71);}.cls-77{fill:url(#linear-gradient-72);}.cls-78{fill:url(#linear-gradient-73);}.cls-79{fill:url(#linear-gradient-74);}.cls-80{fill:url(#linear-gradient-75);}.cls-81{fill:url(#linear-gradient-76);}.cls-82{fill:url(#linear-gradient-77);}.cls-83{fill:url(#linear-gradient-78);}.cls-84{fill:#fff;}.cls-85{fill:url(#linear-gradient-79);}.cls-86{fill:url(#linear-gradient-80);}.cls-87{fill:url(#linear-gradient-81);}.cls-88{fill:url(#linear-gradient-82);}.cls-89{fill:url(#linear-gradient-83);}.cls-90{fill:url(#linear-gradient-84);}.cls-91{fill:url(#linear-gradient-85);}.cls-92{fill:url(#linear-gradient-86);}.cls-93{fill:url(#linear-gradient-87);}.cls-94{fill:url(#linear-gradient-88);}.cls-95{fill:url(#linear-gradient-89);}.cls-96{mask:url(#mask-2);}.cls-97{fill:url(#linear-gradient-90);}.cls-98{filter:url(#luminosity-noclip-2);}.cls-99{filter:url(#luminosity-noclip);}</style><filter id="luminosity-noclip" x="1802.11" y="-9017" width="74.05" height="32766" filterUnits="userSpaceOnUse" color-interpolation-filters="sRGB"><feFlood flood-color="#fff" result="bg"/><feBlend in="SourceGraphic" in2="bg"/></filter><mask id="mask" x="1802.11" y="-9017" width="74.05" height="32766" maskUnits="userSpaceOnUse"><g class="cls-99"/></mask><linearGradient id="linear-gradient" x1="3917.13" y1="879.45" x2="3991.2" y2="879.45" gradientTransform="matrix(1, -0.03, 0.03, 1, -2142.51, 649.26)" gradientUnits="userSpaceOnUse"><stop offset="0" stop-color="#fff"/><stop offset="1"/></linearGradient><linearGradient id="linear-gradient-2" x1="84.36" y1="778.88" x2="2283.41" y2="778.88" gradientTransform="matrix(-1, 0, 0, 1, 2464.32, 0)" gradientUnits="userSpaceOnUse"><stop offset="0" stop-color="#dae3fe"/><stop offset="1" stop-color="#e9effd"/></linearGradient><linearGradient id="linear-gradient-3" x1="2202.46" y1="401.89" x2="2231.23" y2="401.89" gradientTransform="matrix(1, 0, 0, 1, 0, 0)" xlink:href="#linear-gradient-2"/><linearGradient id="linear-gradient-4" x1="2201.12" y1="401.89" x2="2232.57" y2="401.89" gradientTransform="matrix(1, 0, 0, 1, 0, 0)" xlink:href="#linear-gradient-2"/><linearGradient id="linear-gradient-5" x1="2176.32" y1="401.75" x2="2254.41" y2="401.75" gradientTransform="matrix(1, 0, 0, 1, 0, 0)" xlink:href="#linear-gradient-2"/><linearGradient id="linear-gradient-6" x1="2174.98" y1="401.75" x2="2255.74" y2="401.75" gradientTransform="matrix(1, 0, 0, 1, 0, 0)" xlink:href="#linear-gradient-2"/><linearGradient id="linear-gradient-7" x1="2169.81" y1="381.51" x2="2263.63" y2="381.51" gradientTransform="matrix(1, 0, 0, 1, 0, 0)" xlink:href="#linear-gradient-2"/><linearGradient id="linear-gradient-8" x1="2013.48" y1="254.36" x2="2109.97" y2="254.36" gradientTransform="matrix(1, 0, 0, 1, 0, 0)" xlink:href="#linear-gradient-2"/><linearGradient id="linear-gradient-9" x1="2183.41" y1="361.81" x2="2250.04" y2="361.81" gradientTransform="matrix(1, 0, 0, 1, 0, 0)" xlink:href="#linear-gradient-2"/><linearGradient id="linear-gradient-10" x1="2182.07" y1="361.81" x2="2251.39" y2="361.81" gradientTransform="matrix(1, 0, 0, 1, 0, 0)" xlink:href="#linear-gradient-2"/><linearGradient id="linear-gradient-11" x1="2165.74" y1="401.21" x2="2267.7" y2="401.21" gradientTransform="matrix(1, 0, 0, 1, 0, 0)" xlink:href="#linear-gradient-2"/><linearGradient id="linear-gradient-12" x1="2009.4" y1="274.06" x2="2114.05" y2="274.06" gradientTransform="matrix(1, 0, 0, 1, 0, 0)" xlink:href="#linear-gradient-2"/><linearGradient id="linear-gradient-13" x1="2169.81" y1="420.92" x2="2263.63" y2="420.92" gradientTransform="matrix(1, 0, 0, 1, 0, 0)" xlink:href="#linear-gradient-2"/><linearGradient id="linear-gradient-14" x1="2013.48" y1="293.76" x2="2109.97" y2="293.76" gradientTransform="matrix(1, 0, 0, 1, 0, 0)" xlink:href="#linear-gradient-2"/><linearGradient id="linear-gradient-15" x1="2184.95" y1="440.62" x2="2251.86" y2="440.62" gradientTransform="matrix(1, 0, 0, 1, 0, 0)" xlink:href="#linear-gradient-2"/><linearGradient id="linear-gradient-16" x1="2183.62" y1="440.62" x2="2253.2" y2="440.62" gradientTransform="matrix(1, 0, 0, 1, 0, 0)" xlink:href="#linear-gradient-2"/><linearGradient id="linear-gradient-17" x1="2162" y1="401.22" x2="2271.45" y2="401.22" gradientTransform="matrix(1, 0, 0, 1, 0, 0)" xlink:href="#linear-gradient-2"/><linearGradient id="linear-gradient-18" x1="2000.62" y1="297.67" x2="2104.67" y2="297.67" gradientTransform="matrix(1, 0, 0, 1, 0, 0)" xlink:href="#linear-gradient-2"/><linearGradient id="linear-gradient-19" x1="1818.27" y1="429.7" x2="1946.08" y2="429.7" gradientTransform="matrix(1, 0, 0, 1, 0, 0)" xlink:href="#linear-gradient-2"/><linearGradient id="linear-gradient-20" x1="174.95" y1="894.75" x2="596.74" y2="894.75" gradientUnits="userSpaceOnUse"><stop offset="0" stop-color="#4042e2"/><stop offset="1" stop-color="#4f52ff"/></linearGradient><linearGradient id="linear-gradient-21" x1="611.61" y1="873.37" x2="370.72" y2="1235.56" xlink:href="#linear-gradient-20"/><linearGradient id="linear-gradient-22" x1="746.74" y1="996.76" x2="613.03" y2="1345.89" xlink:href="#linear-gradient-20"/><linearGradient id="linear-gradient-23" x1="745.67" y1="1187.19" x2="608.89" y2="1464.09" xlink:href="#linear-gradient-20"/><linearGradient id="linear-gradient-24" x1="455.33" y1="596.09" x2="318.33" y2="929.74" xlink:href="#linear-gradient-20"/><linearGradient id="linear-gradient-25" x1="194.56" y1="1158.55" x2="431.76" y2="623.86" xlink:href="#linear-gradient-20"/><linearGradient id="linear-gradient-26" x1="537.8" y1="668.89" x2="360.9" y2="1042.78" xlink:href="#linear-gradient-20"/><linearGradient id="linear-gradient-27" x1="2560.38" y1="460.91" x2="2321.83" y2="873.32" gradientTransform="matrix(-1, 0.08, 0.08, 1, 2909.52, -208.36)" gradientUnits="userSpaceOnUse"><stop offset="0" stop-color="#fe7062"/><stop offset="1" stop-color="#ff928e"/></linearGradient><linearGradient id="linear-gradient-28" x1="651.43" y1="515.45" x2="483.44" y2="663.95" gradientTransform="matrix(1, 0, 0, 1, 0, 0)" xlink:href="#linear-gradient-27"/><linearGradient id="linear-gradient-29" x1="489.87" y1="633.37" x2="438.87" y2="732.37" gradientTransform="matrix(1, 0, 0, 1, 0, 0)" xlink:href="#linear-gradient-27"/><linearGradient id="linear-gradient-30" x1="620.42" y1="627.28" x2="536.42" y2="457.28" gradientTransform="matrix(1, 0, 0, 1, 0, 0)" xlink:href="#linear-gradient-27"/><linearGradient id="linear-gradient-31" x1="534.65" y1="266.57" x2="533.32" y2="293.23" gradientTransform="matrix(1, 0, 0, 1, 0, 0)" xlink:href="#linear-gradient-27"/><linearGradient id="linear-gradient-32" x1="2411.9" y1="403.91" x2="2412.57" y2="453.24" xlink:href="#linear-gradient-27"/><linearGradient id="linear-gradient-33" x1="1121.54" y1="312.73" x2="1121.2" y2="352.07" gradientTransform="matrix(1, -0.03, 0.03, 1, -526.24, -10.44)" xlink:href="#linear-gradient-27"/><linearGradient id="linear-gradient-34" x1="2339.27" y1="404.89" x2="2339.94" y2="454.22" xlink:href="#linear-gradient-27"/><linearGradient id="linear-gradient-35" x1="580.99" y1="339.74" x2="518.99" y2="462.74" gradientTransform="translate(420.12 -300.04) rotate(45)" xlink:href="#linear-gradient-27"/><linearGradient id="linear-gradient-36" x1="2362.72" y1="345.31" x2="2350.51" y2="378.85" gradientTransform="matrix(-0.48, -0.88, -0.88, 0.48, 2043.1, 2238.64)" gradientUnits="userSpaceOnUse"><stop offset="0" stop-color="#09005d"/><stop offset="1" stop-color="#1a0f91"/></linearGradient><linearGradient id="linear-gradient-37" x1="2402.99" y1="344.28" x2="2390.78" y2="377.81" gradientTransform="matrix(-1, 0.08, 0.08, 1, 2909.52, -208.36)" xlink:href="#linear-gradient-36"/><linearGradient id="linear-gradient-38" x1="770.69" y1="3148.68" x2="860.68" y2="2995.7" gradientTransform="matrix(-1, 0, 0, 1, 2949.88, -14.42)" xlink:href="#linear-gradient-27"/><linearGradient id="linear-gradient-39" x1="749.42" y1="3136.19" x2="839.41" y2="2983.2" gradientTransform="matrix(-1, 0, 0, 1, 2949.7, -16.79)" xlink:href="#linear-gradient-27"/><linearGradient id="linear-gradient-40" x1="2369.75" y1="389.09" x2="2381.8" y2="389.09" gradientTransform="matrix(-1, 0.08, 0.08, 1, 2909.52, -208.36)" xlink:href="#linear-gradient-36"/><linearGradient id="linear-gradient-41" x1="2589.59" y1="625.48" x2="2348.73" y2="652.02" xlink:href="#linear-gradient-27"/><linearGradient id="linear-gradient-42" x1="462.65" y1="604.26" x2="553.65" y2="526.26" gradientTransform="translate(48.36 -39.01) rotate(4.69)" xlink:href="#linear-gradient-27"/><linearGradient id="linear-gradient-43" x1="1801.83" y1="673.49" x2="2378.43" y2="673.49" xlink:href="#linear-gradient-20"/><linearGradient id="linear-gradient-44" x1="1286.66" y1="1466.87" x2="1232.91" y2="1572.57" gradientTransform="matrix(1, 0, 0, 1, 0, 0)" xlink:href="#linear-gradient-36"/><linearGradient id="linear-gradient-45" x1="1245.24" y1="1389.39" x2="1298.78" y2="1389.39" gradientUnits="userSpaceOnUse"><stop offset="0" stop-color="#f9b776"/><stop offset="1" stop-color="#f47960"/></linearGradient><linearGradient id="linear-gradient-46" x1="1171.15" y1="1247.72" x2="1398.68" y2="928.83" gradientTransform="matrix(1, 0, 0, 1, 0, 0)" xlink:href="#linear-gradient-36"/><linearGradient id="linear-gradient-47" x1="1342.19" y1="1379.33" x2="1246.19" y2="1583.32" gradientTransform="matrix(1, 0, 0, 1, 0, 0)" xlink:href="#linear-gradient-36"/><linearGradient id="linear-gradient-48" x1="1223.01" y1="1506.96" x2="1366.98" y2="1506.96" xlink:href="#linear-gradient-20"/><linearGradient id="linear-gradient-49" x1="1206.53" y1="1438.8" x2="1256.78" y2="1438.8" xlink:href="#linear-gradient-45"/><linearGradient id="linear-gradient-50" x1="1089.14" y1="1406.63" x2="1101.68" y2="980.25" gradientTransform="matrix(1, 0, 0, 1, 0, 0)" xlink:href="#linear-gradient-36"/><linearGradient id="linear-gradient-51" x1="1320.83" y1="928.33" x2="1442.83" y2="1308.33" gradientTransform="matrix(1, 0, 0, 1, 0, 0)" xlink:href="#linear-gradient-27"/><linearGradient id="linear-gradient-52" x1="1360.07" y1="859.34" x2="1535.35" y2="859.34" gradientUnits="userSpaceOnUse"><stop offset="0" stop-color="#ff928e"/><stop offset="1" stop-color="#feb3b1"/></linearGradient><linearGradient id="linear-gradient-53" x1="1187.21" y1="971.23" x2="1309.21" y2="1351.23" gradientTransform="matrix(1, 0, 0, 1, 0, 0)" xlink:href="#linear-gradient-27"/><linearGradient id="linear-gradient-54" x1="1300.83" y1="533.97" x2="1197.33" y2="674.96" xlink:href="#linear-gradient-52"/><linearGradient id="linear-gradient-55" x1="1053.35" y1="1014.2" x2="1175.35" y2="1394.2" gradientTransform="matrix(1, 0, 0, 1, 0, 0)" xlink:href="#linear-gradient-27"/><linearGradient id="linear-gradient-56" x1="995.09" y1="505.26" x2="1029.93" y2="745.6" gradientUnits="userSpaceOnUse"><stop offset="0" stop-color="#e1473d"/><stop offset="1" stop-color="#e9605a"/></linearGradient><linearGradient id="linear-gradient-57" x1="1439.87" y1="-61.95" x2="1425.14" y2="-190.81" gradientTransform="matrix(0.92, 0.39, -0.39, 0.92, -315.66, 945.68)" xlink:href="#linear-gradient-52"/><linearGradient id="linear-gradient-58" x1="1272.54" y1="-1115.55" x2="1402.45" y2="-948.29" gradientTransform="matrix(0.92, 0.39, -0.39, 0.92, -315.66, 945.68)" xlink:href="#linear-gradient-36"/><linearGradient id="linear-gradient-59" x1="1392.88" y1="-56.58" x2="1378.15" y2="-185.44" gradientTransform="matrix(0.92, 0.39, -0.39, 0.92, -315.66, 945.68)" xlink:href="#linear-gradient-52"/><linearGradient id="linear-gradient-60" x1="11198.51" y1="1494.02" x2="10970.52" y2="1556.51" gradientTransform="matrix(-1, -0.05, -0.05, 1, 12430.95, -86.8)" xlink:href="#linear-gradient-36"/><linearGradient id="linear-gradient-61" x1="1745.22" y1="678.47" x2="1430.19" y2="924.49" gradientTransform="matrix(1, 0, 0, 1, 0, 0)" xlink:href="#linear-gradient-36"/><linearGradient id="linear-gradient-62" x1="3420.58" y1="873.59" x2="3496.84" y2="873.59" gradientTransform="matrix(-0.99, 0.17, 0.17, 0.99, 4467.16, -356.06)" xlink:href="#linear-gradient-52"/><linearGradient id="linear-gradient-63" x1="1186.87" y1="871.51" x2="1099.87" y2="1150.5" xlink:href="#linear-gradient-52"/><linearGradient id="linear-gradient-64" x1="-5764.1" y1="-3746.47" x2="-5723.13" y2="-3746.47" gradientTransform="translate(6912.88 -2425.62) rotate(-64.85)" xlink:href="#linear-gradient-20"/><linearGradient id="linear-gradient-65" x1="-5705.62" y1="-3670.21" x2="-5664.9" y2="-3670.21" gradientTransform="translate(6912.88 -2425.62) rotate(-64.85)" xlink:href="#linear-gradient-20"/><linearGradient id="linear-gradient-66" x1="4784.66" y1="-0.61" x2="4948.13" y2="-0.61" gradientTransform="matrix(-0.92, 0.39, 0.39, 0.92, 5608.66, -889.05)" xlink:href="#linear-gradient-20"/><linearGradient id="linear-gradient-67" x1="3559.44" y1="591.75" x2="3683.66" y2="518.5" gradientTransform="matrix(-0.98, 0.19, 0.19, 0.98, 4583.4, -395.09)" xlink:href="#linear-gradient-20"/><linearGradient id="linear-gradient-68" x1="3609.79" y1="487.46" x2="3796.33" y2="704.57" gradientTransform="matrix(-0.98, 0.19, 0.19, 0.98, 4583.4, -395.09)" xlink:href="#linear-gradient-20"/><linearGradient id="linear-gradient-69" x1="1034.85" y1="710.47" x2="1024.35" y2="882.96" xlink:href="#linear-gradient-52"/><linearGradient id="linear-gradient-70" x1="2103.22" y1="-2236.32" x2="2193.25" y2="-2084.84" gradientTransform="matrix(-0.98, 0.19, 0.19, 0.98, 4583.4, -395.09)" xlink:href="#linear-gradient-52"/><linearGradient id="linear-gradient-71" x1="3623.67" y1="385.05" x2="3788.63" y2="385.05" gradientTransform="matrix(-0.98, 0.19, 0.19, 0.98, 4583.4, -395.09)" xlink:href="#linear-gradient-36"/><linearGradient id="linear-gradient-72" x1="2137.38" y1="-2256.7" x2="2227.41" y2="-2105.22" gradientTransform="matrix(-0.98, 0.19, 0.19, 0.98, 4583.4, -395.09)" xlink:href="#linear-gradient-52"/><linearGradient id="linear-gradient-73" x1="3729.77" y1="1112.58" x2="3732.77" y2="1337.57" gradientTransform="matrix(-0.98, 0.19, 0.19, 0.98, 4583.4, -395.09)" xlink:href="#linear-gradient-52"/><linearGradient id="linear-gradient-74" x1="3660.69" y1="443.69" x2="3847.34" y2="660.91" gradientTransform="matrix(-0.98, 0.19, 0.19, 0.98, 4583.4, -395.09)" xlink:href="#linear-gradient-20"/><linearGradient id="linear-gradient-75" x1="1003.57" y1="834.73" x2="1031.55" y2="834.73" gradientTransform="matrix(1, 0, 0, 1, 0, 0)" xlink:href="#linear-gradient-36"/><linearGradient id="linear-gradient-76" x1="5488.3" y1="1154.77" x2="5491.3" y2="1379.76" gradientTransform="translate(-4398.93 1321.83) rotate(-10.82)" xlink:href="#linear-gradient-52"/><linearGradient id="linear-gradient-77" x1="1245.99" y1="707.47" x2="1006.01" y2="1002.95" xlink:href="#linear-gradient-52"/><linearGradient id="linear-gradient-78" x1="686.77" y1="955.47" x2="1845.43" y2="955.47" gradientTransform="matrix(1, 0, 0, 1, 0, 0)" xlink:href="#linear-gradient-2"/><linearGradient id="linear-gradient-79" x1="1831.65" y1="1437.57" x2="1882.65" y2="1254.55" gradientTransform="matrix(1, 0, 0, 1, 0, 0)" xlink:href="#linear-gradient-27"/><linearGradient id="linear-gradient-80" x1="1618.89" y1="1425.86" x2="2052.87" y2="1425.86" xlink:href="#linear-gradient-56"/><linearGradient id="linear-gradient-81" x1="3879.37" y1="993.99" x2="3886.37" y2="1096.99" gradientTransform="matrix(1, -0.03, 0.03, 1, -2142.51, 649.26)" xlink:href="#linear-gradient-56"/><linearGradient id="linear-gradient-82" x1="3881.87" y1="993.82" x2="3888.87" y2="1096.82" gradientTransform="matrix(1, -0.03, 0.03, 1, -2142.51, 649.26)" xlink:href="#linear-gradient-56"/><linearGradient id="linear-gradient-83" x1="4055.38" y1="982.03" x2="4062.38" y2="1085.03" gradientTransform="matrix(1, -0.03, 0.03, 1, -2142.51, 649.26)" xlink:href="#linear-gradient-56"/><linearGradient id="linear-gradient-84" x1="4058" y1="981.85" x2="4065" y2="1084.85" gradientTransform="matrix(1, -0.03, 0.03, 1, -2142.51, 649.26)" xlink:href="#linear-gradient-56"/><linearGradient id="linear-gradient-85" x1="3590.62" y1="1832.3" x2="3533.62" y2="2021.3" gradientTransform="matrix(1, -0.03, 0.03, 1, -2142.51, 649.26)" xlink:href="#linear-gradient-27"/><linearGradient id="linear-gradient-86" x1="1803.39" y1="825.45" x2="1765.89" y2="1069.93" xlink:href="#linear-gradient-52"/><linearGradient id="linear-gradient-87" x1="1866.79" y1="1175.26" x2="1824.78" y2="1337.27" gradientTransform="matrix(1, 0, 0, 1, 0, 0)" xlink:href="#linear-gradient-27"/><linearGradient id="linear-gradient-88" x1="1614.49" y1="1313.23" x2="2052.47" y2="1313.23" xlink:href="#linear-gradient-56"/><linearGradient id="linear-gradient-89" x1="3971.72" y1="721.09" x2="3946.25" y2="922.92" gradientTransform="matrix(1, -0.03, 0.03, 1, -2142.51, 649.26)" xlink:href="#linear-gradient-56"/><filter id="luminosity-noclip-2" x="1802.11" y="1359.92" width="74.05" height="65.25" filterUnits="userSpaceOnUse" color-interpolation-filters="sRGB"><feFlood flood-color="#fff" result="bg"/><feBlend in="SourceGraphic" in2="bg"/></filter><mask id="mask-2" x="1647.11" y="1232.77" width="74.05" height="65.25" maskUnits="userSpaceOnUse"><g class="cls-98"><g transform="translate(-155 -127.15)"><g class="cls-1"><path class="cls-2" d="M1863.11,1423.69l-43.07,1.48a11.14,11.14,0,0,1-11.4-9.4l-6.4-41.27a11.12,11.12,0,0,1,10.64-12.79l51.74-1.78a11.12,11.12,0,0,1,11.52,11.69l-2.27,41.58A11.14,11.14,0,0,1,1863.11,1423.69Z"/></g></g></g></mask><linearGradient id="linear-gradient-90" x1="3917.13" y1="879.45" x2="3991.2" y2="879.45" gradientTransform="matrix(1, -0.03, 0.03, 1, -2142.51, 649.26)" xlink:href="#linear-gradient-27"/></defs><path class="cls-3" d="M219.41,314.83C143.9,442,176.7,613.31,342.35,715.4s147.86,95.13,86,195.44-117.42,430.21,164.41,477.32,706.76,22.58,706.76,22.58,746.67,7.9,954.65-169.85,129.7-354.94-29.55-405.14-186.41-102.4-100.73-172.82,194.52-215,13.82-360.23-386.88,63.38-548.38,35.68-97.54-121-309.93-56.58S1113.8,158.62,943.06,141.61,789.82,336.76,614.19,256.68,294.91,187.65,219.41,314.83Z" transform="translate(-155 -127.15)"/><path class="cls-4" d="M199,777.27c-47.24,125.21-149.21,507.16,306.63,626,0,0-68.93-404.8-260.49-633.63C232.21,754.23,206,758.54,199,777.27Z" transform="translate(-155 -127.15)"/><path class="cls-5" d="M230.64,891.46a.82.82,0,0,1,1.6-.3c15.43,69.21,80.68,324.82,233,484.12,1,1-.53,2.44-1.63,1.57C423,1344.61,268.54,1188.52,230.64,891.46Z" transform="translate(-155 -127.15)"/><path class="cls-6" d="M651.85,926.22S536,488.17,313.43,253.32c-15-15.79-41.45-8.87-46.65,12.25C232,406.8,169.37,834.08,651.85,926.22Z" transform="translate(-155 -127.15)"/><path class="cls-5" d="M607.2,898.94a1.2,1.2,0,0,1-1.51,1.85C560.32,868.84,384,710.64,312.07,388.12a.83.83,0,0,1,1.6-.46C337.23,462.24,432.75,737,607.2,898.94Z" transform="translate(-155 -127.15)"/><path class="cls-4" d="M1310.85,1061.92c2.37-18.18,16.17-34.25,36.83-42.14,52.55-20.06,102.83-50.09,145.8-89.35,84.52-77.2,121-171.92,107.31-253.15-3.43-20.43,7.93-40.54,29.61-51.75,57.43-29.7,115.09-73.26,164.81-127.6,127.61-139.44,154.68-297,60.47-351.85s-274,13.67-401.64,153.11c-50.73,55.43-85.55,113.71-103.2,167.27-6.75,20.47-27.82,35.76-54,39.23-87.32,11.58-177.12,51.12-247.4,115.32a395.31,395.31,0,0,0-51.2,56.41c-12.65,17.08-36.29,27-61.11,25.78-129.87-6.5-264.71,35.36-359.91,122.32C418.83,970.21,430.16,1184.88,602.54,1305s440.52,100.21,598.92-44.48C1265.4,1202.12,1301.66,1132.31,1310.85,1061.92Z" transform="translate(-155 -127.15)"/><path class="cls-5" d="M1734.05,315.11c-14,22.67-29.34,44.7-45.14,66.54s-32.22,43.38-49.23,64.63q-50.92,63.8-107.7,124.47-56.58,60.72-118.82,117.89c-5.18,4.76-10.24,9.61-15.52,14.31L1381.82,717c-10.54,9.4-21,18.84-31.93,28l-16.21,13.81c-5.43,4.58-10.72,9.27-16.31,13.73l-33.2,27c-5.47,4.55-11.26,8.85-16.89,13.28l-17,13.19c-5.7,4.36-11.32,8.8-17.09,13.11L1215.74,852l-17.45,12.81-8.73,6.41c-2.92,2.12-5.94,4.16-8.91,6.24l-35.72,24.89c-5.89,4.21-12.09,8.13-18.16,12.17l-18.28,12.06-18.28,12.05c-6.16,3.95-12.45,7.78-18.66,11.67l-37.43,23.24-38.3,22.32c-6.42,3.68-12.71,7.51-19.24,11.06L957,1017.54l-19.58,10.66-9.8,5.34-4.89,2.66-5,2.55-40,20.32-10,5.08-5,2.54-5.1,2.41-20.41,9.62-20.44,9.59-10.22,4.78c-3.4,1.61-6.8,3.21-10.31,4.67l-41.68,18c-7,3-13.85,6.08-20.9,8.93l-21.23,8.4-42.5,16.72a2.72,2.72,0,0,1-3.24-.87,1.77,1.77,0,0,1,1.06-2.57l.08,0,42-17.35,21-8.63c7-2.92,13.77-6.11,20.66-9.15l41.21-18.44c3.46-1.5,6.82-3.13,10.18-4.77l10.1-4.9,20.2-9.76,20.22-9.74,5.06-2.43,4.95-2.57,9.9-5.13L912.91,1033l4.94-2.57,4.85-2.7,9.69-5.38,19.38-10.76,19.39-10.76c6.46-3.58,12.68-7.45,19-11.16l38-22.42L1065.32,944c6.18-3.9,12.42-7.72,18.54-11.67l18.16-12,18.15-12c6-4,12.19-8,18-12.16,47.76-32.75,93.6-67.23,138.44-102.5a2447.62,2447.62,0,0,0,248-227.21Q1581.7,506.25,1633.3,443q26-31.5,50.15-63.91c4-5.39,8.07-10.79,12-16.24s7.89-10.88,11.74-16.36c7.76-10.93,15.38-21.94,22.54-33.1h0a2.73,2.73,0,0,1,3.25-.84A1.77,1.77,0,0,1,1734.05,315.11Z" transform="translate(-155 -127.15)"/><path class="cls-4" d="M2013.9,1108.4c41.25-48,60.71-106.11,58.08-159.06a26.45,26.45,0,0,1,14.56-25.19c25.74-12.86,52.09-33.65,77.19-62.87,71.64-83.42,106.05-204,57-246.12s-163.06,10.06-234.7,93.48c-22,25.56-37.38,51.08-46.81,75.4a27.08,27.08,0,0,1-24.89,17.2c-56.88,1.54-117.38,30.09-162.22,82.3A250.59,250.59,0,0,0,1714.43,942c-5.58,12.16-19.16,18.34-32.62,14.68-81.58-22.16-170,.33-226.32,65.64C1375.58,1115,1391.75,1262,1491,1345.08c98,82.07,240.35,74.56,319.32-17.39a211.61,211.61,0,0,0,50-116.67,26.69,26.69,0,0,1,21.8-23.63C1929.43,1178.35,1977,1151.4,2013.9,1108.4Z" transform="translate(-155 -127.15)"/><path class="cls-5" d="M2140.76,717.15c-8.72,15.55-18.19,30.61-27.89,45.54s-19.82,29.54-30.11,44c-20.76,28.9-42.47,57.13-65.33,84.42a1389.41,1389.41,0,0,1-148.7,153.37c-26.62,23.79-54.68,46-83.42,67.27a1009.88,1009.88,0,0,1-89.78,59c-7.8,4.45-15.55,9-23.38,13.34l-23.88,12.52c-7.9,4.25-16.14,7.93-24.27,11.76l-12.22,5.72-6.11,2.86-6.24,2.61-25,10.28c-4.12,1.79-8.42,3.21-12.66,4.77l-12.74,4.55-12.75,4.51c-4.25,1.49-8.64,2.66-12.94,4l-26,7.65-.57-1.54,25.06-9.79c4.17-1.65,8.4-3.11,12.5-4.89l12.29-5.37,12.3-5.32c4.09-1.78,8.24-3.43,12.22-5.45l24.07-11.6,6-2.86,5.91-3.11,11.8-6.21c7.85-4.17,15.78-8.17,23.39-12.74l23.13-13.17c7.58-4.59,15.08-9.31,22.62-14,3.75-2.35,7.57-4.61,11.26-7l11.07-7.33,11.09-7.31c3.69-2.43,7.41-4.83,11-7.43l21.66-15.31c3.64-2.5,7.13-5.21,10.67-7.87l10.61-7.94,10.63-7.91,10.42-8.19c6.9-5.51,13.93-10.87,20.73-16.5l20.34-17c6.76-5.67,13.36-11.54,20.05-17.3,26.59-23.24,52.3-47.48,77.27-72.46S1984,909,2007.55,882.65s46.27-53.48,68.26-81.21c5.58-6.88,11-13.91,16.41-20.88l16.06-21.16q4-5.29,7.93-10.66T2124,738q7.83-10.74,15.32-21.72Z" transform="translate(-155 -127.15)"/><path class="cls-7" d="M1093.55,289.15a1.62,1.62,0,0,1-1.44-.55c-1.4-1.62-2.86-3.23-4.34-4.78a1.64,1.64,0,0,1,2.37-2.26c1.51,1.59,3,3.24,4.45,4.9a1.64,1.64,0,0,1-.17,2.31A1.63,1.63,0,0,1,1093.55,289.15Z" transform="translate(-155 -127.15)"/><path class="cls-7" d="M1006.42,515.88c-2.46.34-5,.56-7.49.73a1.63,1.63,0,0,1-1.74-1.52,1.65,1.65,0,0,1,1.52-1.74c2.42-.17,4.92-.42,7.31-.71,1.76-.22,3.56-.48,5.35-.78a1.59,1.59,0,0,1,1.88,1.35,1.64,1.64,0,0,1-1.35,1.88C1010.07,515.39,1008.23,515.66,1006.42,515.88Zm25.76-5.77a1.64,1.64,0,0,1-.7-3.18c3.9-1.28,7.8-2.75,11.59-4.39l.33-.14a1.64,1.64,0,0,1,1.29,3l-.33.14c-3.88,1.67-7.87,3.18-11.87,4.49A1.55,1.55,0,0,1,1032.18,510.11Zm30.6-14.34a1.63,1.63,0,0,1-1.58-.75,1.64,1.64,0,0,1,.51-2.26c3.6-2.26,7.12-4.7,10.47-7.27a1.63,1.63,0,0,1,2,2.59c-3.43,2.63-7,5.14-10.72,7.45A1.64,1.64,0,0,1,1062.78,495.77ZM1089,474.42a1.63,1.63,0,0,1-1.38-2.75c2.92-3.06,5.73-6.3,8.36-9.62a1.63,1.63,0,1,1,2.56,2c-2.68,3.4-5.56,6.71-8.56,9.85A1.62,1.62,0,0,1,1089,474.42Zm20.16-27.11a1.65,1.65,0,0,1-1-.2,1.63,1.63,0,0,1-.61-2.23c2.08-3.68,4-7.5,5.76-11.37a1.64,1.64,0,0,1,3,1.35c-1.78,3.95-3.77,7.87-5.91,11.63A1.64,1.64,0,0,1,1109.12,447.31Zm13-31.2a1.74,1.74,0,0,1-.64-.05,1.64,1.64,0,0,1-1.14-2c1.14-4.08,2.1-8.26,2.84-12.42a1.64,1.64,0,0,1,3.22.58c-.76,4.26-1.74,8.54-2.91,12.72A1.63,1.63,0,0,1,1122.09,416.11Zm5-33.42h-.25a1.63,1.63,0,0,1-1.59-1.68c.11-4.24,0-8.53-.28-12.74a1.64,1.64,0,1,1,3.27-.23c.3,4.32.39,8.71.28,13.06A1.63,1.63,0,0,1,1127.1,382.69Zm-3.33-33.64a1.64,1.64,0,0,1-1.79-1.26c-.94-4.13-2.08-8.27-3.4-12.29a1.64,1.64,0,1,1,3.11-1c1.35,4.12,2.52,8.36,3.48,12.58a1.64,1.64,0,0,1-1.24,2Zm-11.43-31.81a1.64,1.64,0,0,1-1.66-.89c-1.91-3.79-4-7.53-6.26-11.1a1.64,1.64,0,1,1,2.77-1.74c2.3,3.66,4.45,7.48,6.41,11.37a1.64,1.64,0,0,1-.72,2.2A1.76,1.76,0,0,1,1112.34,317.24Z" transform="translate(-155 -127.15)"/><path class="cls-7" d="M978,516.44a1.9,1.9,0,0,1-.34,0c-2.18-.19-4.39-.43-6.57-.72a1.63,1.63,0,1,1,.43-3.24c2.13.28,4.29.52,6.42.7a1.63,1.63,0,0,1,.06,3.25Z" transform="translate(-155 -127.15)"/><path class="cls-7" d="M882.14,465.46a1.66,1.66,0,0,1-1.48-.6c-1.36-1.7-2.71-3.47-4-5.26a1.64,1.64,0,1,1,2.64-1.93c1.27,1.75,2.59,3.48,3.92,5.14a1.64,1.64,0,0,1-1.07,2.65Z" transform="translate(-155 -127.15)"/><path class="cls-7" d="M867.34,442.72a1.63,1.63,0,0,1-1.65-.88c-1.54-3-3-6-4.32-9.11-.36-.85-.72-1.7-1.06-2.54a1.63,1.63,0,1,1,3-1.24q.51,1.24,1,2.49c1.29,3,2.71,6,4.21,8.9a1.62,1.62,0,0,1-.7,2.2A1.55,1.55,0,0,1,867.34,442.72Zm-11.67-31.14a1.64,1.64,0,0,1-1.79-1.24c-1-4.15-1.83-8.39-2.44-12.61a1.64,1.64,0,0,1,1.38-1.86,1.67,1.67,0,0,1,1.85,1.39c.61,4.12,1.41,8.26,2.39,12.31a1.62,1.62,0,0,1-1.2,2Zm-3.85-33-.21,0a1.65,1.65,0,0,1-1.63-1.65c0-4.26.25-8.58.67-12.82a1.64,1.64,0,1,1,3.26.32c-.41,4.14-.63,8.35-.66,12.52A1.63,1.63,0,0,1,851.82,378.54Zm4.22-33a1.41,1.41,0,0,1-.61,0,1.63,1.63,0,0,1-1.18-2c1-4.14,2.3-8.27,3.72-12.29a1.63,1.63,0,1,1,3.08,1.09c-1.38,3.92-2.61,8-3.63,12A1.64,1.64,0,0,1,856,345.56Zm12-31a1.67,1.67,0,0,1-1-.18,1.65,1.65,0,0,1-.67-2.22c2-3.76,4.2-7.47,6.54-11a1.64,1.64,0,0,1,2.74,1.79c-2.29,3.49-4.44,7.12-6.39,10.79A1.66,1.66,0,0,1,868,314.55Zm19-27.25a1.64,1.64,0,0,1-1.42-2.72c2.84-3.17,5.87-6.25,9-9.15a1.63,1.63,0,0,1,2.22,2.4c-3.06,2.83-6,5.84-8.79,8.93A1.66,1.66,0,0,1,887.05,287.3Zm25-21.87a1.64,1.64,0,0,1-1.12-3c3.52-2.39,7.21-4.64,10.94-6.7a1.63,1.63,0,1,1,1.58,2.86c-3.65,2-7.24,4.22-10.69,6.55A1.63,1.63,0,0,1,912.09,265.43Zm29.55-15.21a1.64,1.64,0,0,1-.76-3.16c4-1.49,8.11-2.81,12.23-3.92a1.64,1.64,0,0,1,.85,3.16c-4,1.09-8,2.37-12,3.82A1.56,1.56,0,0,1,941.64,250.22Zm45-8.59-.17,0c-4.17.08-8.38.36-12.51.83a1.64,1.64,0,0,1-.39-3.25h0c4.23-.48,8.54-.77,12.81-.86a1.64,1.64,0,0,1,.24,3.26Z" transform="translate(-155 -127.15)"/><path class="cls-7" d="M1013.77,243.78a1.68,1.68,0,0,1-.5,0c-2.1-.38-4.24-.71-6.38-1a1.64,1.64,0,0,1,.43-3.25c2.18.29,4.38.63,6.54,1a1.63,1.63,0,0,1-.09,3.23Z" transform="translate(-155 -127.15)"/><path class="cls-6" d="M1020.9,276.76a1.62,1.62,0,0,0-1.87.39L1005.43,292a87.55,87.55,0,0,0-28.37-.51l-13-15.28a1.65,1.65,0,0,0-1.86-.47l-22.44,8.83a1.65,1.65,0,0,0-1,1.61l.85,20.07a87.73,87.73,0,0,0-20.41,19.71l-20-1.58a1.65,1.65,0,0,0-1.64,1l-9.63,22.11a1.66,1.66,0,0,0,.4,1.88L903,362.91a87.56,87.56,0,0,0-.52,28.37l-15.28,13.05a1.64,1.64,0,0,0-.46,1.86l8.82,22.44a1.66,1.66,0,0,0,1.61,1.05l20.07-.86A87.54,87.54,0,0,0,937,449.23l-1.58,20a1.67,1.67,0,0,0,1,1.65l22.11,9.62a1.64,1.64,0,0,0,1.88-.39L974,465.34a87.56,87.56,0,0,0,28.37.51l13,15.28a1.65,1.65,0,0,0,1.86.47l22.44-8.83a1.65,1.65,0,0,0,1-1.61l-.86-20.07a87.54,87.54,0,0,0,20.41-19.71l20,1.58a1.65,1.65,0,0,0,1.64-1l9.63-22.11a1.66,1.66,0,0,0-.4-1.88l-14.81-13.59a87.56,87.56,0,0,0,.52-28.37l15.28-13a1.65,1.65,0,0,0,.46-1.86l-8.83-22.44a1.65,1.65,0,0,0-1.6-1.05l-20.08.86a87.34,87.34,0,0,0-19.71-20.41l1.58-20a1.64,1.64,0,0,0-1-1.65Z" transform="translate(-155 -127.15)"/><path class="cls-4" d="M992.65,402.34a23.87,23.87,0,1,1,11-4.29A23.81,23.81,0,0,1,992.65,402.34Zm-5.31-42.51a19,19,0,1,0,5.44.11A19.11,19.11,0,0,0,987.34,359.83Z" transform="translate(-155 -127.15)"/><path class="cls-4" d="M996.87,439.36A60.66,60.66,0,0,1,967.33,322.7l1.18-.45a61.53,61.53,0,0,1,10-2.76l1.26-.22.8,4.84a56.26,56.26,0,0,0-11.45,3.16,55.34,55.34,0,0,0-29.7,27.46q-.52,1.06-1,2.16a55.29,55.29,0,0,0-4.25,29,56.09,56.09,0,0,0,3.48,13.66A55.74,55.74,0,1,0,1023.57,335l3-3.89a60.65,60.65,0,0,1-14.83,104.47A61.6,61.6,0,0,1,996.87,439.36Z" transform="translate(-155 -127.15)"/><path class="cls-7" d="M1246.56,187.5a1.78,1.78,0,0,1-1.64-.67c-1.45-1.84-3-3.63-4.62-5.33a1.81,1.81,0,0,1,2.62-2.49c1.69,1.77,3.32,3.65,4.84,5.58a1.81,1.81,0,0,1-.3,2.54A1.74,1.74,0,0,1,1246.56,187.5Z" transform="translate(-155 -127.15)"/><path class="cls-7" d="M1205.94,311.22a1.81,1.81,0,0,1-.7-3.54,76.91,76.91,0,0,0,10-3.51q1.73-.75,3.39-1.56a1.81,1.81,0,0,1,1.58,3.25q-1.74.84-3.54,1.62a79.2,79.2,0,0,1-10.46,3.68Zm33.18-18.73a1.83,1.83,0,0,1-1.53-.55,1.8,1.8,0,0,1,.06-2.55A75.31,75.31,0,0,0,1247,278.6a1.81,1.81,0,0,1,2.94,2.1,79.5,79.5,0,0,1-9.83,11.3A1.81,1.81,0,0,1,1239.12,292.49Zm20.34-32.21a1.74,1.74,0,0,1-.78-.08,1.81,1.81,0,0,1-1.16-2.28,75,75,0,0,0,3.18-14,1.81,1.81,0,0,1,3.59.47,80.51,80.51,0,0,1-3.33,14.61A1.84,1.84,0,0,1,1259.46,260.28Zm2.71-38a1.79,1.79,0,0,1-2-1.47,76.17,76.17,0,0,0-3.83-13.78,1.81,1.81,0,1,1,3.38-1.29,80.05,80.05,0,0,1,4,14.43,1.81,1.81,0,0,1-1.46,2.1Z" transform="translate(-155 -127.15)"/><path class="cls-7" d="M1182.28,313.94a1.42,1.42,0,0,1-.29,0c-2.46-.1-4.94-.31-7.36-.63a1.81,1.81,0,0,1,.47-3.59c2.32.31,4.68.52,7,.61a1.8,1.8,0,0,1,.15,3.59Z" transform="translate(-155 -127.15)"/><path class="cls-7" d="M1124.4,284.81a1.82,1.82,0,0,1-1.63-.66c-1.53-1.91-3-3.92-4.35-6a1.8,1.8,0,1,1,3-2c1.3,2,2.69,3.88,4.15,5.71a1.81,1.81,0,0,1-1.18,2.92Z" transform="translate(-155 -127.15)"/><path class="cls-7" d="M1110.33,257.78a1.82,1.82,0,0,1-1.95-1.29,78.52,78.52,0,0,1-2.61-12.6q-.12-.93-.21-1.86a1.86,1.86,0,0,1,1.62-2,1.81,1.81,0,0,1,2,1.62c0,.59.12,1.18.19,1.78a76.25,76.25,0,0,0,2.49,12,1.8,1.8,0,0,1-1.22,2.24A1.5,1.5,0,0,1,1110.33,257.78Zm-1.55-37.45a1.62,1.62,0,0,1-.58,0,1.8,1.8,0,0,1-1.41-2.13,80.66,80.66,0,0,1,4.26-14.1,1.82,1.82,0,0,1,2.36-1,1.8,1.8,0,0,1,1,2.35,77.57,77.57,0,0,0-4.07,13.46A1.8,1.8,0,0,1,1108.78,220.33Zm16.06-33.85a1.77,1.77,0,0,1-1.36-.4,1.81,1.81,0,0,1-.26-2.54,80.14,80.14,0,0,1,10.34-10.5,1.81,1.81,0,0,1,2.33,2.77,75.36,75.36,0,0,0-9.87,10A1.82,1.82,0,0,1,1124.84,186.48Zm30-22.45a1.81,1.81,0,0,1-.92-3.46,80.24,80.24,0,0,1,14-4.48,1.77,1.77,0,0,1,2.16,1.37,1.8,1.8,0,0,1-1.38,2.15,77.38,77.38,0,0,0-13.4,4.29A2,2,0,0,1,1154.84,164Z" transform="translate(-155 -127.15)"/><path class="cls-7" d="M1199.07,159.06a2,2,0,0,1-.55,0c-2.3-.42-4.66-.73-7-.93a1.81,1.81,0,0,1,.31-3.6c2.44.21,4.91.53,7.33,1a1.81,1.81,0,0,1-.1,3.57Z" transform="translate(-155 -127.15)"/><path class="cls-6" d="M1203,176.89a.94.94,0,0,0-1.07.23l-7.71,8.4a49.57,49.57,0,0,0-16.09-.3l-7.41-8.66a.93.93,0,0,0-1-.27l-12.73,5a.94.94,0,0,0-.59.91l.48,11.39a49.84,49.84,0,0,0-11.58,11.18l-11.37-.89a.92.92,0,0,0-.93.56L1127.5,217a.92.92,0,0,0,.23,1.06l8.4,7.71a49.63,49.63,0,0,0-.3,16.1l-8.66,7.4a.93.93,0,0,0-.27,1.05l5,12.74a.93.93,0,0,0,.91.59l11.39-.49a49.64,49.64,0,0,0,11.18,11.58l-.9,11.37a.94.94,0,0,0,.56.93l12.55,5.46a.94.94,0,0,0,1.06-.22l7.71-8.4a49.91,49.91,0,0,0,16.1.29l7.4,8.67a.93.93,0,0,0,1.05.26l12.73-5a.93.93,0,0,0,.6-.91l-.49-11.39a49.6,49.6,0,0,0,11.58-11.17l11.37.89a.93.93,0,0,0,.93-.56l5.46-12.54a1,1,0,0,0-.22-1.07l-8.4-7.71a49.85,49.85,0,0,0,.29-16.09l8.67-7.4a.94.94,0,0,0,.26-1.06l-5-12.73a.92.92,0,0,0-.91-.59l-11.39.48a49.83,49.83,0,0,0-11.18-11.58l.9-11.36a.94.94,0,0,0-.56-.94Z" transform="translate(-155 -127.15)"/><path class="cls-4" d="M1187.15,249.43a14.84,14.84,0,1,1,6.81-2.66A14.86,14.86,0,0,1,1187.15,249.43ZM1179.8,227a9.44,9.44,0,1,0,13.17,2.17A9.45,9.45,0,0,0,1179.8,227Z" transform="translate(-155 -127.15)"/><path class="cls-4" d="M1189.53,270.44a35.73,35.73,0,0,1-17.4-68.71,36.24,36.24,0,0,1,7.33-2l.88,5.35a30.33,30.33,0,0,0-22.48,16.85c0,.11-.09.21-.14.32s-.2.43-.29.64a30,30,0,0,0-2.31,15.76,30.5,30.5,0,0,0,1.89,7.43A30.3,30.3,0,1,0,1203.72,211l3.3-4.29a35.82,35.82,0,0,1,11.43,15.21,36.27,36.27,0,0,1,2.23,8.76,35.75,35.75,0,0,1-22.4,37.56A36.19,36.19,0,0,1,1189.53,270.44Z" transform="translate(-155 -127.15)"/><path class="cls-6" d="M2270.06,473.55H2157.61A15.58,15.58,0,0,1,2142,458V345.22a15.57,15.57,0,0,1,14.32-15.52l119.81-9.7A15.58,15.58,0,0,1,2293,336.46l-7.36,122.45A15.58,15.58,0,0,1,2270.06,473.55Z" transform="translate(-155 -127.15)"/><path class="cls-8" d="M2231.23,401.73a158,158,0,0,1-2.26,27.55c-.41,2.27-.88,4.53-1.45,6.77a64.16,64.16,0,0,1-2,6.63,30.7,30.7,0,0,1-3,6.24,12.21,12.21,0,0,1-2.27,2.65,6.63,6.63,0,0,1-1.48,1,4.67,4.67,0,0,1-1.74.41,4.39,4.39,0,0,1-1.75-.33,6,6,0,0,1-1.52-.91,11.49,11.49,0,0,1-2.31-2.61,30.49,30.49,0,0,1-3.07-6.22,64.09,64.09,0,0,1-2-6.62c-.57-2.24-1.05-4.5-1.46-6.77-.83-4.54-1.39-9.12-1.77-13.72s-.57-9.21-.59-13.82c0-2.31.05-4.62.13-6.92s.22-4.61.39-6.91c.34-4.6.84-9.19,1.6-13.74.38-2.27.82-4.54,1.35-6.78a63.23,63.23,0,0,1,1.92-6.65,34.31,34.31,0,0,1,1.29-3.22,23.55,23.55,0,0,1,1.64-3.05,11.66,11.66,0,0,1,2.27-2.63,5.44,5.44,0,0,1,1.5-.9,4.26,4.26,0,0,1,1.72-.31,4.41,4.41,0,0,1,1.71.4,6.7,6.7,0,0,1,1.48.93,12.34,12.34,0,0,1,2.31,2.58,31.17,31.17,0,0,1,3.18,6.15,66.5,66.5,0,0,1,2.18,6.57c.61,2.22,1.13,4.47,1.58,6.74A144.38,144.38,0,0,1,2231.23,401.73Zm-.68,0c0-4.59-.16-9.19-.54-13.77a136.47,136.47,0,0,0-1.79-13.66c-.42-2.25-.92-4.5-1.5-6.72a64.77,64.77,0,0,0-2.09-6.55,31.33,31.33,0,0,0-3.08-6.12,12.19,12.19,0,0,0-2.24-2.56,6.47,6.47,0,0,0-1.42-.91,4.16,4.16,0,0,0-1.62-.4,3.86,3.86,0,0,0-1.64.31,5.57,5.57,0,0,0-1.43.88,11.12,11.12,0,0,0-2.18,2.6,21.36,21.36,0,0,0-1.6,3c-.46,1-.87,2.12-1.24,3.2a65.7,65.7,0,0,0-1.84,6.63q-.75,3.36-1.27,6.77c-.7,4.54-1.16,9.12-1.44,13.71s-.4,9.18-.39,13.78.14,9.19.48,13.77.87,9.15,1.66,13.67c.39,2.27.85,4.52,1.4,6.74a62.46,62.46,0,0,0,2,6.59,30.61,30.61,0,0,0,3,6.15,11.52,11.52,0,0,0,2.22,2.54,5.65,5.65,0,0,0,1.42.87,3.87,3.87,0,0,0,1.61.3,3.83,3.83,0,0,0,1.58-.39,5.85,5.85,0,0,0,1.39-.91,12.09,12.09,0,0,0,2.18-2.59,30.92,30.92,0,0,0,2.92-6.18,64.82,64.82,0,0,0,2-6.59c.55-2.23,1-4.48,1.39-6.74.78-4.53,1.3-9.1,1.64-13.68S2230.56,406.33,2230.55,401.73Z" transform="translate(-155 -127.15)"/><path class="cls-9" d="M2216.85,454.29a5.68,5.68,0,0,1-2.12-.42,7.33,7.33,0,0,1-1.85-1.1,13,13,0,0,1-2.59-2.91,31.21,31.21,0,0,1-3.21-6.5,64.32,64.32,0,0,1-2.09-6.77c-.56-2.15-1-4.4-1.49-6.85-.79-4.36-1.37-8.89-1.78-13.86-.37-4.51-.57-9.2-.6-13.93,0-2.47.06-4.91.14-7,.08-2.34.21-4.68.38-7,.37-5,.9-9.53,1.62-13.86.41-2.47.86-4.72,1.37-6.88a64.22,64.22,0,0,1,2-6.78c.43-1.23.87-2.32,1.33-3.33a25.36,25.36,0,0,1,1.74-3.23,12.61,12.61,0,0,1,2.55-2.94,6.74,6.74,0,0,1,1.85-1.1,5.69,5.69,0,0,1,2.26-.41,6.09,6.09,0,0,1,2.2.52,8,8,0,0,1,1.78,1.11,13.78,13.78,0,0,1,2.57,2.86,32,32,0,0,1,3.32,6.42,65.09,65.09,0,0,1,2.23,6.71c.59,2.17,1.12,4.4,1.6,6.84a145.13,145.13,0,0,1,2.55,27.78,158.49,158.49,0,0,1-2.28,27.79c-.44,2.45-.93,4.7-1.47,6.86a65.94,65.94,0,0,1-2.07,6.76,32.81,32.81,0,0,1-3.16,6.52,13.49,13.49,0,0,1-2.52,2.94,8.05,8.05,0,0,1-1.8,1.16,5.65,5.65,0,0,1-2.26.53Zm-.69-101.91a2.62,2.62,0,0,0-1,.21,4.4,4.4,0,0,0-1.09.68,10,10,0,0,0-1.91,2.28,22.84,22.84,0,0,0-1.5,2.86c-.41.92-.8,1.94-1.2,3.09a64.55,64.55,0,0,0-1.79,6.49c-.47,2.1-.88,4.28-1.25,6.68-.66,4.25-1.13,8.69-1.44,13.58-.26,4.18-.39,8.66-.38,13.69,0,4.65.15,9.25.48,13.68.36,4.86.9,9.29,1.63,13.54.42,2.38.87,4.56,1.39,6.65a61.76,61.76,0,0,0,1.94,6.44,28.87,28.87,0,0,0,2.83,5.88,9.91,9.91,0,0,0,2,2.24,4.2,4.2,0,0,0,1.07.66,2.78,2.78,0,0,0,1.06.21A2.68,2.68,0,0,0,2218,451a4.46,4.46,0,0,0,1.08-.71A10.39,10.39,0,0,0,2221,448a28.9,28.9,0,0,0,2.8-5.9,63,63,0,0,0,1.91-6.45c.51-2.08,1-4.26,1.37-6.65.73-4.21,1.26-8.64,1.63-13.55.34-4.42.51-9,.5-13.67s-.17-9.23-.54-13.66a129.15,129.15,0,0,0-1.77-13.52c-.44-2.36-.92-4.52-1.48-6.63a62.43,62.43,0,0,0-2-6.41,29.11,29.11,0,0,0-2.94-5.85,11,11,0,0,0-2-2.28,5,5,0,0,0-1.12-.72,2.93,2.93,0,0,0-1.1-.28Z" transform="translate(-155 -127.15)"/><path class="cls-10" d="M2254.41,401.73a68,68,0,0,1-2.38,17.61,56.65,56.65,0,0,1-7.34,16.14,46.85,46.85,0,0,1-5.6,6.89,39.34,39.34,0,0,1-6.9,5.57,33.18,33.18,0,0,1-8.05,3.7,30,30,0,0,1-17.5,0,33.6,33.6,0,0,1-8.06-3.69,39.71,39.71,0,0,1-6.9-5.57,46.34,46.34,0,0,1-5.62-6.89,57,57,0,0,1-7.36-16.15,66.21,66.21,0,0,1-1.78-8.73,65.62,65.62,0,0,1,0-17.78,63.76,63.76,0,0,1,1.79-8.73,56.92,56.92,0,0,1,7.36-16.13,46.49,46.49,0,0,1,5.62-6.88,39.25,39.25,0,0,1,6.9-5.57,33.26,33.26,0,0,1,8.05-3.67,29.7,29.7,0,0,1,17.48,0,33.23,33.23,0,0,1,8,3.68,39.65,39.65,0,0,1,6.9,5.56,46.88,46.88,0,0,1,5.6,6.88,57,57,0,0,1,7.35,16.14A67.46,67.46,0,0,1,2254.41,401.73Zm-.78,0a66.84,66.84,0,0,0-2.28-17.41,56.67,56.67,0,0,0-7.11-16,45.76,45.76,0,0,0-5.48-6.87,37.67,37.67,0,0,0-6.77-5.57,32.48,32.48,0,0,0-7.95-3.69,29.84,29.84,0,0,0-8.65-1.32,30.2,30.2,0,0,0-8.65,1.33,32.41,32.41,0,0,0-7.94,3.69,38.08,38.08,0,0,0-6.76,5.58,45.2,45.2,0,0,0-5.47,6.87,56.56,56.56,0,0,0-7.09,16,66.67,66.67,0,0,0-1.7,8.62,67.32,67.32,0,0,0,0,17.56,63.49,63.49,0,0,0,1.71,8.62,56.35,56.35,0,0,0,7.09,16,45.75,45.75,0,0,0,5.47,6.86,38.46,38.46,0,0,0,6.76,5.57,32.75,32.75,0,0,0,7.94,3.68,28.8,28.8,0,0,0,17.27,0,32.75,32.75,0,0,0,7.94-3.68,38,38,0,0,0,6.77-5.56,45.39,45.39,0,0,0,5.48-6.87,56.15,56.15,0,0,0,7.11-16A66.86,66.86,0,0,0,2253.63,401.73Z" transform="translate(-155 -127.15)"/><path class="cls-11" d="M2215.39,454.29a31.33,31.33,0,0,1-9.14-1.36,35.05,35.05,0,0,1-8.38-3.83,40.62,40.62,0,0,1-7.14-5.76,48.12,48.12,0,0,1-5.78-7.09,58.08,58.08,0,0,1-7.53-16.53,65,65,0,0,1-1.82-8.92,71.42,71.42,0,0,1-.62-9.06,73.38,73.38,0,0,1,.62-9.08,66.06,66.06,0,0,1,1.83-8.91,57.92,57.92,0,0,1,7.54-16.52,47.51,47.51,0,0,1,5.78-7.08,40,40,0,0,1,7.14-5.75,34.73,34.73,0,0,1,8.38-3.83,31.18,31.18,0,0,1,18.25,0,34.6,34.6,0,0,1,8.36,3.83,40.49,40.49,0,0,1,7.13,5.75,47.23,47.23,0,0,1,5.77,7.08,58.15,58.15,0,0,1,7.53,16.52,68.48,68.48,0,0,1,2.43,18v0a68.47,68.47,0,0,1-2.42,18,57.79,57.79,0,0,1-7.52,16.53,47.38,47.38,0,0,1-5.76,7.09,41,41,0,0,1-7.14,5.76,34.71,34.71,0,0,1-8.37,3.85A31.62,31.62,0,0,1,2215.39,454.29Zm0-102.11a28.44,28.44,0,0,0-8.26,1.26,31.37,31.37,0,0,0-7.61,3.54,37.21,37.21,0,0,0-6.53,5.39,45.17,45.17,0,0,0-5.3,6.67,54.88,54.88,0,0,0-6.91,15.64,62.55,62.55,0,0,0-1.67,8.45,66.08,66.08,0,0,0-.56,8.6,69.66,69.66,0,0,0,.56,8.6,64.3,64.3,0,0,0,1.68,8.44,55.17,55.17,0,0,0,6.92,15.64,44.49,44.49,0,0,0,5.31,6.66,37.08,37.08,0,0,0,6.52,5.38,31.7,31.7,0,0,0,7.61,3.52,27.5,27.5,0,0,0,16.49,0,31.77,31.77,0,0,0,7.62-3.52,37.35,37.35,0,0,0,6.53-5.37,45.66,45.66,0,0,0,5.31-6.66,54.87,54.87,0,0,0,6.94-15.65,66,66,0,0,0,0-34.11,55.15,55.15,0,0,0-6.94-15.65,44.58,44.58,0,0,0-5.31-6.67,37.19,37.19,0,0,0-6.54-5.38,31.26,31.26,0,0,0-7.62-3.54A28.77,28.77,0,0,0,2215.39,352.18Z" transform="translate(-155 -127.15)"/><path class="cls-12" d="M2169.86,381.46l11.72-.09,11.72-.06,23.43,0,23.43.05,11.72.06,11.72.1s0,0,0,0,0,0,0,0l-11.72.1-11.72.06-23.43.05-23.43-.05-11.72,0-11.72-.09s-.05,0-.05,0S2169.84,381.46,2169.86,381.46Z" transform="translate(-155 -127.15)"/><polygon class="cls-13" points="2061.73 255.95 2026.58 255.85 2014.3 255.75 2013.48 254.93 2013.48 254.33 2013.51 253.02 2014.85 252.97 2038.29 252.81 2061.73 252.77 2096.89 252.88 2109.94 252.99 2109.97 255.7 2108.6 255.74 2085.17 255.9 2061.73 255.95"/><path class="cls-14" d="M2183.46,361.76c2.77,0,5.54-.06,8.32-.09l8.31-.06c2.78,0,5.55,0,8.32,0l8.32,0,16.64.05,8.32.06c2.77,0,5.54.05,8.31.1l0,0a0,0,0,0,1,0,.05c-2.77,0-5.54.07-8.31.1l-8.32.06-16.64.05-8.32,0c-2.77,0-5.54,0-8.32,0l-8.31-.05c-2.78,0-5.55,0-8.32-.09a.06.06,0,0,1-.05-.06A.05.05,0,0,1,2183.46,361.76Z" transform="translate(-155 -127.15)"/><path class="cls-15" d="M2216.73,363.4l-10.48,0c-2.05,0-4.11,0-6.17,0l-11.09-.08-5.55-.07-1.32,0,0-2.72,1.37-.05q2.68,0,5.37-.06l11.28-.09c1.95,0,3.9,0,5.86,0l10.78,0,28,.14,5.31.07,1.36,0-.06,2.7-1.33,0-5.53.07-11.09.09Z" transform="translate(-155 -127.15)"/><path class="cls-16" d="M2165.79,401.16l12.74-.09,12.73-.06,25.47,0,25.47,0,12.73.06,12.74.1s0,0,0,0,0,0,0,0l-12.74.1-12.73.06-25.47,0-25.47,0-12.73-.06-12.74-.09a.06.06,0,0,1-.05-.06A.05.05,0,0,1,2165.79,401.16Z" transform="translate(-155 -127.15)"/><polygon class="cls-17" points="2061.73 275.65 2023.52 275.55 2009.45 275.45 2009.4 272.72 2010.78 272.67 2036.26 272.52 2061.73 272.47 2099.94 272.58 2113.24 272.69 2114.05 273.51 2114 275.4 2112.67 275.44 2087.2 275.6 2061.73 275.65"/><path class="cls-18" d="M2169.86,420.86l11.72-.09,11.72-.06,23.43,0,23.43.05,11.72.06,11.72.1a0,0,0,0,1,0,0s0,.05,0,.05l-11.72.1-11.72.06-23.43.05-23.43,0-11.72-.06-11.72-.09a.06.06,0,0,1,0-.11Z" transform="translate(-155 -127.15)"/><polygon class="cls-19" points="2061.73 295.35 2026.58 295.25 2014.3 295.15 2013.48 294.33 2013.48 293.73 2013.51 292.42 2014.85 292.37 2038.29 292.22 2061.73 292.17 2096.89 292.28 2109.94 292.39 2109.97 295.11 2108.6 295.14 2085.17 295.3 2061.73 295.35"/><path class="cls-20" d="M2251.68,440.8h-66.55a.19.19,0,0,1-.18-.18.18.18,0,0,1,.18-.18h66.55a.18.18,0,0,1,.18.18A.19.19,0,0,1,2251.68,440.8Z" transform="translate(-155 -127.15)"/><path class="cls-21" d="M2251.68,442.14h-66.55a1.53,1.53,0,0,1,0-3.05h66.55a1.53,1.53,0,0,1,0,3.05Z" transform="translate(-155 -127.15)"/><path class="cls-22" d="M2216.73,455.35c-30.18,0-54.73-24.28-54.73-54.13s24.55-54.13,54.73-54.13,54.72,24.28,54.72,54.13S2246.9,455.35,2216.73,455.35Zm0-103.45c-27.53,0-49.93,22.12-49.93,49.32s22.4,49.32,49.93,49.32,49.92-22.12,49.92-49.32S2244.25,351.9,2216.73,351.9Z" transform="translate(-155 -127.15)"/><path class="cls-6" d="M2103.57,366H1996.71a14.8,14.8,0,0,1-14.79-14.8V244a14.8,14.8,0,0,1,13.6-14.75l113.85-9.21a14.79,14.79,0,0,1,16,15.63l-7,116.37A14.8,14.8,0,0,1,2103.57,366Z" transform="translate(-155 -127.15)"/><path class="cls-23" d="M2012,345.13a11.32,11.32,0,0,1-11.33-11.32V265.12a3.51,3.51,0,1,1,7,0v68.69a4.26,4.26,0,0,0,1.35,3.13,4.32,4.32,0,0,0,3.21,1.17l81.4-4.85a4.31,4.31,0,0,0,4.05-4.29V261.52a4.29,4.29,0,0,0-4.73-4.28L2025.21,264a4.3,4.3,0,0,0-3.06,6.8L2048,306.4a4.28,4.28,0,0,0,3.45,1.77h0a4.24,4.24,0,0,0,3.44-1.72l28.45-37.9a3.51,3.51,0,1,1,5.61,4.21l-28.45,37.91a11,11,0,0,1-9.15,4.52,11.19,11.19,0,0,1-9.07-4.68l-25.82-35.64a11.31,11.31,0,0,1,8-17.9l67.72-6.71a11.31,11.31,0,0,1,12.44,11.26V329A11.33,11.33,0,0,1,2094,340.26l-81.4,4.85Z" transform="translate(-155 -127.15)"/><path class="cls-6" d="M1796,380.25v100.4A22.34,22.34,0,0,0,1817.32,503l125.55,5.9a22.35,22.35,0,0,0,23.39-22.32V380.25a22.34,22.34,0,0,0-22.34-22.33H1818.37A22.34,22.34,0,0,0,1796,380.25Z" transform="translate(-155 -127.15)"/><path class="cls-24" d="M1841.51,484.24c-1.62,0-3,0-4.07,0a3.73,3.73,0,0,1-.92-7.33c9.64-2.7,20.16-7.29,27.9-11-36.92-3-44.29-22-45.72-30.65-3.59-21.87,15.4-46.62,42.32-55.17,27.48-8.72,55.32-5.58,70.93,8,8.29,7.22,17.29,21,13,45.92C1937.06,480.51,1864.48,484.24,1841.51,484.24Zm-3.17-.92Zm-.77-5.82h0Zm53.35-18.2-11.7,6.52a259.06,259.06,0,0,1-23.43,11.29c28.5-1.72,76.72-9.77,82.6-44.27,3-17.51-.66-30.88-10.84-39.74-15.79-13.74-43.77-13.25-64.5-6.67-23.48,7.45-40.76,29.29-37.73,47.7,2.74,16.7,21.76,26.05,52.21,25.41Z" transform="translate(-155 -127.15)"/><path class="cls-7" d="M1723.35,553.16a.89.89,0,0,1-.74-1.39q1.25-1.83,2.4-3.7a.89.89,0,0,1,1.52.94c-.79,1.27-1.6,2.52-2.45,3.76A.86.86,0,0,1,1723.35,553.16Z" transform="translate(-155 -127.15)"/><path class="cls-7" d="M1641.6,596.38c-2.75,0-5.53-.12-8.28-.34a.89.89,0,0,1,.15-1.78c2.69.22,5.42.34,8.12.34h.5a.89.89,0,1,1,0,1.78Zm9.18-.43a.89.89,0,0,1-.89-.81.9.9,0,0,1,.8-1c2.85-.26,5.73-.66,8.55-1.17a.9.9,0,0,1,1,.72.88.88,0,0,1-.71,1c-2.87.53-5.8.93-8.7,1.2Zm-26-1-.15,0c-2.88-.49-5.77-1.12-8.58-1.85a.89.89,0,0,1,.45-1.73c2.77.73,5.6,1.34,8.43,1.83a.89.89,0,0,1-.15,1.77Zm43.1-2.12a.89.89,0,0,1-.23-1.75c2.75-.76,5.51-1.65,8.2-2.66a.89.89,0,0,1,1.14.53.88.88,0,0,1-.52,1.14c-2.73,1-5.54,1.93-8.35,2.71A1,1,0,0,1,1667.87,592.83Zm-59.91-2.3a1,1,0,0,1-.3,0c-2.74-1-5.47-2.11-8.12-3.33a.89.89,0,1,1,.75-1.61c2.6,1.2,5.28,2.29,8,3.26a.89.89,0,0,1-.3,1.73Zm76.2-3.78a.91.91,0,0,1-.81-.51.9.9,0,0,1,.42-1.19c2.59-1.23,5.14-2.6,7.61-4.06a.91.91,0,0,1,1.22.32.89.89,0,0,1-.32,1.22c-2.5,1.48-5.11,2.87-7.74,4.13A.85.85,0,0,1,1684.16,586.75Zm-92-3.51a.88.88,0,0,1-.44-.12c-2.53-1.44-5-3-7.41-4.69a.9.9,0,0,1-.22-1.24.88.88,0,0,1,1.24-.22c2.35,1.63,4.79,3.19,7.27,4.61a.89.89,0,0,1-.44,1.66Zm106.93-5.34a.89.89,0,0,1-.52-1.62c1.11-.79,2.21-1.61,3.29-2.46s2.36-1.88,3.5-2.85a.89.89,0,1,1,1.15,1.35c-1.15,1-2.34,2-3.55,2.91s-2.22,1.69-3.35,2.5A.92.92,0,0,1,1699.12,577.9ZM1578,573.3a.87.87,0,0,1-.57-.21c-2.23-1.86-4.4-3.86-6.47-5.93a.88.88,0,0,1,0-1.25.89.89,0,0,1,1.26,0c2,2,4.17,4,6.35,5.82a.89.89,0,0,1-.57,1.57Zm134.37-6.71a.88.88,0,0,1-.62-.25.89.89,0,0,1,0-1.26c2-2.05,3.94-4.21,5.75-6.41a.89.89,0,1,1,1.38,1.13c-1.84,2.24-3.82,4.44-5.86,6.53A.89.89,0,0,1,1712.32,566.59ZM1565.67,561a.87.87,0,0,1-.68-.32c-.76-.91-1.5-1.82-2.24-2.76-1.07-1.37-2.11-2.79-3.11-4.2a.89.89,0,0,1,.22-1.24.88.88,0,0,1,1.24.21c1,1.4,2,2.79,3.06,4.13.72.92,1.45,1.83,2.19,2.71a.9.9,0,0,1-.68,1.47Zm-10-14.24a.9.9,0,0,1-.78-.45c-1.45-2.52-2.82-5.14-4.05-7.78a.89.89,0,0,1,1.62-.75c1.21,2.59,2.54,5.16,4,7.64a.9.9,0,0,1-.33,1.22A.88.88,0,0,1,1555.7,546.77ZM1548.36,531a.89.89,0,0,1-.83-.59c-1-2.74-1.87-5.56-2.62-8.38a.9.9,0,0,1,.63-1.09.88.88,0,0,1,1.09.64c.73,2.76,1.6,5.53,2.57,8.23a.89.89,0,0,1-.53,1.14A1.06,1.06,0,0,1,1548.36,531Z" transform="translate(-155 -127.15)"/><path class="cls-7" d="M1543.9,514.1a.89.89,0,0,1-.87-.74c-.26-1.48-.47-3-.66-4.45a.89.89,0,1,1,1.77-.21c.18,1.45.39,2.9.64,4.36a.88.88,0,0,1-.73,1Z" transform="translate(-155 -127.15)"/><path class="cls-7" d="M1562,438.34a.87.87,0,0,1-.53-.18.88.88,0,0,1-.19-1.24q1.34-1.8,2.76-3.54a.89.89,0,0,1,1.25-.13.88.88,0,0,1,.13,1.25q-1.4,1.71-2.71,3.48A.86.86,0,0,1,1562,438.34Z" transform="translate(-155 -127.15)"/><path class="cls-7" d="M1738.22,475.94a.89.89,0,0,1-.87-.7c-.65-3-1.46-5.94-2.39-8.84a.89.89,0,0,1,1.7-.54c.95,2.95,1.77,6,2.43,9a.88.88,0,0,1-.68,1.06A.58.58,0,0,1,1738.22,475.94Zm-5.65-17.58a.88.88,0,0,1-.82-.54c-1.2-2.79-2.55-5.56-4-8.23a.89.89,0,0,1,1.56-.86c1.48,2.72,2.85,5.54,4.08,8.39a.9.9,0,0,1-.47,1.17A.87.87,0,0,1,1732.57,458.36Zm-8.84-16.21a.92.92,0,0,1-.74-.39c-1.29-1.92-2.67-3.83-4.11-5.67-.44-.57-.89-1.13-1.35-1.69a.89.89,0,0,1,1.38-1.13c.46.57.92,1.14,1.37,1.72,1.47,1.88,2.88,3.82,4.19,5.77a.89.89,0,0,1-.24,1.24A.91.91,0,0,1,1723.73,442.15ZM1570.87,428a.9.9,0,0,1-.63-1.52c2.17-2.2,4.47-4.33,6.85-6.33a.89.89,0,1,1,1.14,1.36c-2.33,2-4.59,4.06-6.72,6.22A.9.9,0,0,1,1570.87,428Zm141.19-.11a.9.9,0,0,1-.64-.27c-2.13-2.16-4.39-4.26-6.71-6.22a.89.89,0,1,1,1.14-1.36c2.37,2,4.67,4.13,6.84,6.34a.89.89,0,0,1,0,1.26A.88.88,0,0,1,1712.06,427.84ZM1585,416a.89.89,0,0,1-.51-1.62c2.54-1.77,5.19-3.44,7.89-5a.89.89,0,0,1,1.21.34.88.88,0,0,1-.33,1.21c-2.65,1.5-5.26,3.14-7.76,4.88A.85.85,0,0,1,1585,416Zm112.94-.1a.91.91,0,0,1-.5-.15c-2.5-1.74-5.11-3.37-7.76-4.86a.89.89,0,0,1-.34-1.21.88.88,0,0,1,1.21-.34c2.7,1.52,5.36,3.18,7.9,4.94a.89.89,0,0,1-.51,1.62Zm-96.87-9a.89.89,0,0,1-.37-1.7c2.83-1.27,5.75-2.42,8.68-3.41a.89.89,0,0,1,.58,1.68c-2.89,1-5.75,2.11-8.53,3.35A.78.78,0,0,1,1601.07,406.94Zm80.79,0a.94.94,0,0,1-.36-.08c-2.78-1.24-5.65-2.36-8.53-3.33a.89.89,0,0,1-.56-1.13.9.9,0,0,1,1.13-.56c2.93,1,5.85,2.13,8.68,3.39a.89.89,0,0,1,.45,1.18A.88.88,0,0,1,1681.86,406.9Zm-63.31-5.9a.89.89,0,0,1-.2-1.75c3-.71,6.08-1.3,9.16-1.73a.89.89,0,1,1,.25,1.76c-3,.43-6,1-9,1.7A.75.75,0,0,1,1618.55,401Zm45.82,0a.75.75,0,0,1-.21,0c-3-.7-6-1.27-9-1.69a.89.89,0,1,1,.25-1.76c3,.42,6.13,1,9.16,1.72a.89.89,0,0,1-.2,1.75Zm-18.29-2.56h0q-4.57-.21-9.16,0a.89.89,0,0,1-.08-1.78c3.11-.15,6.22-.14,9.32,0a.89.89,0,0,1,.85.93A.88.88,0,0,1,1646.08,398.43Z" transform="translate(-155 -127.15)"/><path class="cls-7" d="M1740.24,489.57a.88.88,0,0,1-.88-.82c-.12-1.46-.26-2.93-.44-4.38a.89.89,0,1,1,1.76-.22c.19,1.48.34,3,.45,4.46a.89.89,0,0,1-.82,1Z" transform="translate(-155 -127.15)"/><path class="cls-7" d="M1621.55,526.57c3.71-3.1,17.8-26.72,40.33,0,2.44,1.27,8.75-2.3,7.95-4.79-26.38-38.47-59.23-2.37-56,1.59S1617.23,530.19,1621.55,526.57Z" transform="translate(-155 -127.15)"/><path class="cls-7" d="M1685.73,510.55c4.92-.57,9.55-3.93,8.17-8.23s-48.31-59.08-100.6,2.74a3.72,3.72,0,0,0,.46,5.27c2.38,2,4.41,3.32,7,3C1648.65,459.07,1680.82,511.13,1685.73,510.55Z" transform="translate(-155 -127.15)"/><path class="cls-7" d="M1710.17,494.17c3.5.7,10.64-1.93,8.79-7.67-82.63-89.91-156.22,4.33-153.52,8.13s8.17,3.94,10.38,2.66C1641.61,412.9,1706.68,493.47,1710.17,494.17Z" transform="translate(-155 -127.15)"/><path class="cls-7" d="M1652.31,540.31a10.95,10.95,0,1,1-10.94-10.95A10.94,10.94,0,0,1,1652.31,540.31Z" transform="translate(-155 -127.15)"/><rect class="cls-25" x="174.95" y="502.3" width="421.79" height="784.91" rx="34.78"/><rect class="cls-7" x="192.83" y="526.76" width="382.71" height="739.36" rx="34.78"/><path class="cls-4" d="M346.51,1118.08V934.52a9.75,9.75,0,0,1,6.55-9.24q30.1-10.28,60.2,2.84A11.1,11.1,0,0,1,420,939l-12.21,178.65Z" transform="translate(-155 -127.15)"/><path class="cls-6" d="M358,942.24V987a6.84,6.84,0,0,0,6.44,6.83l32.5,1.94a6.84,6.84,0,0,0,7.21-6.13l4.76-46a6.83,6.83,0,0,0-6-7.5c-9.64-1.08-27.51-2.59-39.18-.62A6.85,6.85,0,0,0,358,942.24Z" transform="translate(-155 -127.15)"/><path class="cls-6" d="M422.34,944.58l-10.82,173.1H476.4V949.41a11.31,11.31,0,0,0-7.67-10.69c-8.59-2.93-23.18-6.6-37.52-4.05A10.75,10.75,0,0,0,422.34,944.58Z" transform="translate(-155 -127.15)"/><path class="cls-4" d="M422.51,1053.59l-2.19,48.27a7,7,0,0,0,7,7.34h32.78a7,7,0,0,0,7-7v-48.27a7,7,0,0,0-7-7H429.53A7,7,0,0,0,422.51,1053.59Z" transform="translate(-155 -127.15)"/><path class="cls-26" d="M538.87,1117.68V938.74A10.17,10.17,0,0,0,531.7,929a76.07,76.07,0,0,0-44.44.14,9.23,9.23,0,0,0-6.5,8.81v179.73Z" transform="translate(-155 -127.15)"/><path class="cls-7" d="M486.51,941.73l1.41,26.42a6.19,6.19,0,0,0,6.19,5.87h31.12a6.2,6.2,0,0,0,6.19-6l.85-26.06a6.18,6.18,0,0,0-4.87-6.26c-7.56-1.63-22.43-3.88-36.19-.32A6.23,6.23,0,0,0,486.51,941.73Z" transform="translate(-155 -127.15)"/><path class="cls-7" d="M488.92,985.4a6.21,6.21,0,0,0,6.19,5.78H524.9a6.21,6.21,0,0,0,0-12.41H495.11A6.21,6.21,0,0,0,488.92,985.4Z" transform="translate(-155 -127.15)"/><path class="cls-6" d="M620.14,1209.1s-5.61-34.91,11.53-46.2a1.16,1.16,0,0,1,1.78,1v6.64a1.8,1.8,0,0,0,3,1.31c3.69-3.47,10.29-8.76,17.29-9.86a2.34,2.34,0,0,1,2.53,3.29c-4.3,9.17-15.54,34.9-15.11,51.75Z" transform="translate(-155 -127.15)"/><path class="cls-27" d="M602,1209.09l-11.47,183.4h68.74V1214.21a12,12,0,0,0-8.13-11.33c-9.09-3.11-24.56-7-39.75-4.29A11.38,11.38,0,0,0,602,1209.09Z" transform="translate(-155 -127.15)"/><path class="cls-7" d="M602.13,1324.59l-2.33,51.14a7.44,7.44,0,0,0,7.43,7.78H642a7.44,7.44,0,0,0,7.44-7.44v-51.14a7.44,7.44,0,0,0-7.44-7.44h-32.4A7.43,7.43,0,0,0,602.13,1324.59Z" transform="translate(-155 -127.15)"/><path class="cls-28" d="M725.41,1377.83V1202.91a10.8,10.8,0,0,0-7.6-10.33,80.55,80.55,0,0,0-47.08.16,9.76,9.76,0,0,0-6.89,9.33v190.42h46.91A14.66,14.66,0,0,0,725.41,1377.83Z" transform="translate(-155 -127.15)"/><path class="cls-7" d="M669.93,1206.08l1.49,28a6.57,6.57,0,0,0,6.56,6.22h33a6.57,6.57,0,0,0,6.57-6.35l.9-27.62a6.57,6.57,0,0,0-5.16-6.63c-8-1.73-23.77-4.11-38.35-.33A6.59,6.59,0,0,0,669.93,1206.08Z" transform="translate(-155 -127.15)"/><path class="cls-7" d="M672.49,1252.34a6.57,6.57,0,0,0,6.55,6.12h31.57a6.57,6.57,0,1,0,0-13.14H679A6.57,6.57,0,0,0,672.49,1252.34Z" transform="translate(-155 -127.15)"/><path class="cls-6" d="M450.07,1203.64l-2.43,188H556.9l-8.18-183a13,13,0,0,0-8.63-11.67c-13.58-4.85-43.14-12-83.18-2A9,9,0,0,0,450.07,1203.64Z" transform="translate(-155 -127.15)"/><path class="cls-4" d="M515.87,1208.2l7.62,184.11h65.12l4.93-186.17a11.36,11.36,0,0,0-8-11.21c-21.18-6.36-42.21-7-63,2.51A11.31,11.31,0,0,0,515.87,1208.2Z" transform="translate(-155 -127.15)"/><path class="cls-6" d="M521.8,1215.11l.77,10a5.59,5.59,0,0,0,5.89,5.15l53.2-3.1a5.58,5.58,0,0,0,5.24-5.16l.52-6.91a5.58,5.58,0,0,0-5.57-6H527.36A5.57,5.57,0,0,0,521.8,1215.11Z" transform="translate(-155 -127.15)"/><path class="cls-6" d="M524,1239v3.66a5,5,0,0,0,5.17,5l51-2.12a5,5,0,0,0,4.76-5v-3.87a5,5,0,0,0-5.19-5l-51,2.35A5,5,0,0,0,524,1239Z" transform="translate(-155 -127.15)"/><path class="cls-6" d="M407.82,688.66l-2.1,163.2h94.82L493.44,693A11.28,11.28,0,0,0,486,682.88c-11.79-4.21-37.45-10.38-72.2-1.71A7.84,7.84,0,0,0,407.82,688.66Z" transform="translate(-155 -127.15)"/><path class="cls-29" d="M366.78,683.87a9.84,9.84,0,0,0-8.11,9.06l-9.89,158.19h59.29V697.34a10.33,10.33,0,0,0-7-9.77C393.22,684.89,379.88,681.54,366.78,683.87Z" transform="translate(-155 -127.15)"/><path class="cls-7" d="M358.83,792.55l-2,44.11a6.42,6.42,0,0,0,6.41,6.71h30a6.42,6.42,0,0,0,6.42-6.42V792.84a6.43,6.43,0,0,0-6.42-6.42H365.24A6.42,6.42,0,0,0,358.83,792.55Z" transform="translate(-155 -127.15)"/><rect class="cls-30" x="190.35" y="724.21" width="385.67" height="18.27"/><rect class="cls-31" x="189.57" y="988.19" width="385.67" height="18.28"/><path class="cls-32" d="M460,599.91c-1.19-2.5-2.34-5-3.48-7.53,1.74,5.6-.29,11.6-2.29,17.11-.21.57-.42,1.14-.62,1.71-8.42,23.15-17.06,46.67-12.3,71.69,4.43,23.31,20.23,41.45,39.79,54,7.74,5,18,7.66,26.78,10.29a173,173,0,0,0,32.28,6.39,12,12,0,0,1-7.55-4.77c1.85,2.58,18,2.28,21.35,2.55a135.61,135.61,0,0,0,20.14.49c13.93-1,27.71-2.64,40.83-7.74a82.83,82.83,0,0,0,35.32-25.93c9-11.53,18.85-33.23,7.25-46.38-6.63-7.52-16.21-13.43-26.16-12.26a5.09,5.09,0,0,0-2.14.61c-1.49.92-1.86,3-1.37,4.68a16.09,16.09,0,0,0,2.63,4.5,8.27,8.27,0,0,1,1.9,4.78c-.12,4.9-8.05,8.26-12.11,9.39-7.51,2.07-16,1.72-23.74,1.81-12,1-23.6-.47-35.45-1.62-6.6-.64-13.2-1.33-19.81-1.93-3.7-.33-9,.23-12.21-1.67.86-1.08,2.25-1.42,3.44-2.33s3-4.71,4-5.18c-7.78,3.83-19,6.22-27.63,4.23-7.79-1.8-14.62-10.59-18.09-17.27C480.44,639.69,469.48,620,460,599.91Z" transform="translate(-155 -127.15)"/><path class="cls-33" d="M626.72,487.82c-4.12,47.3-6.25,91.59-2.23,126.52,11.83.54,20.93,4.11,21,8.51,0,4.85-10.92,8.88-24.49,9s-23.89-3.78-24.63-8.57a6.55,6.55,0,0,1,.25-3.36L576.48,493.22C574.64,457.06,623.28,453.11,626.72,487.82Z" transform="translate(-155 -127.15)"/><path class="cls-34" d="M607.07,386.88c35,80.26,17,153.58-23.32,230.47-57.25,30.18-103.36,33.18-127.28-17.91-30.25-80.24,78.1-151.46,75-213Z" transform="translate(-155 -127.15)"/><path class="cls-35" d="M596.58,484.32c-4.07,50.95-3.47,98,7.6,136.23,12.77-.36,22.84,2.76,23.23,7.5.43,5.21-11,10.4-25.62,11.6s-26-2.18-27.17-7.28a7,7,0,0,1,0-3.63C563.42,597.16,553.15,546.58,543,494.1,538.14,455.36,590.14,447.27,596.58,484.32Z" transform="translate(-155 -127.15)"/><path class="cls-36" d="M550.3,315.13c-8.72-11.79-20.4-18.11-35.22-18.6,4.83,19.73,3,37.08,10,43.2Z" transform="translate(-155 -127.15)"/><path class="cls-37" d="M545.63,316c-6.27-8.47-14.66-13-25.32-13.37,3.48,14.18,2.14,26.65,7.17,31.05Z" transform="translate(-155 -127.15)"/><path class="cls-38" d="M589,310.77c7.33-12.71,18.21-20.31,32.89-22.48-2.57,20.16,1.24,37.19-5,44Z" transform="translate(-155 -127.15)"/><path class="cls-39" d="M594,312.59c5.11-8.85,12.69-14.14,22.91-15.65-1.79,14,.86,25.89-3.49,30.67Z" transform="translate(-155 -127.15)"/><circle class="cls-40" cx="572.23" cy="357.11" r="51.2" transform="translate(-239.91 382.07) rotate(-45)"/><circle class="cls-41" cx="591.51" cy="347.77" r="4.38" transform="translate(-121.93 619.33) rotate(-65.98)"/><path class="cls-42" d="M546.92,350.39a4.38,4.38,0,1,0,4-4.72A4.39,4.39,0,0,0,546.92,350.39Z" transform="translate(-155 -127.15)"/><ellipse class="cls-43" cx="559.98" cy="381.76" rx="14.07" ry="12.25" transform="translate(-184.32 -80.13) rotate(-4.69)"/><ellipse class="cls-44" cx="587.91" cy="378.58" rx="14.07" ry="12.25" transform="translate(-183.96 -77.87) rotate(-4.68)"/><path class="cls-45" d="M567.18,371.67c.1,1.17,6.57,6.34,6.57,6.34s5.54-6.16,5.44-7.32-2.86-1.88-6.18-1.61S567.09,370.51,567.18,371.67Z" transform="translate(-155 -127.15)"/><path class="cls-46" d="M482.41,630.27c57.47-8,84.26-17.21,88.13-9.29,8.21,9.91,4.16,15.5-11.76,19.91C507.42,645.14,493.64,648,482.41,630.27Z" transform="translate(-155 -127.15)"/><ellipse class="cls-47" cx="500.92" cy="571.45" rx="46.59" ry="65.9" transform="translate(-200.01 -84.32) rotate(-4.69)"/><path class="cls-48" d="M1813.91,569.29l554.92-2.43a9.51,9.51,0,0,1,9.6,9.57l-1.18,194.24a9.51,9.51,0,0,1-9.79,9.45c-48.93-1.46-550.46-7.9-560-7.5s-4.33-153-2.91-194.15A9.49,9.49,0,0,1,1813.91,569.29Z" transform="translate(-155 -127.15)"/><path class="cls-6" d="M2367.75,772.61h-.06c-31.28-.93-331-4.67-475-6.47-42.11-.52-72-.9-80-1H1812l-.13-.73c-3.4-19.2-3.35-83.4.17-185.66a2,2,0,0,1,2-1.91l554.93-2.43a2,2,0,0,1,1.42.59,1.88,1.88,0,0,1,.58,1.41l-1.18,194.24A2,2,0,0,1,2367.75,772.61Zm-554.26-9.28c9,.13,38.33.49,79.22,1,144,1.8,443.74,5.54,475,6.47h.05c.06,0,.14-.09.14-.2l1.18-194.24-.2-1.09v.9L1814,578.6a.19.19,0,0,0-.18.19C1810.34,679.65,1810.23,743.39,1813.49,763.33Z" transform="translate(-155 -127.15)"/><path class="cls-6" d="M1837.66,619.45c0,5.25,1.75,9.51,3.91,9.51h212.56c2.17,0,3.92-4.26,3.92-9.51s-1.75-9.51-3.92-9.51H1841.57C1839.41,609.94,1837.66,614.2,1837.66,619.45Z" transform="translate(-155 -127.15)"/><path class="cls-6" d="M1837.66,651.87c0,5.26,1.75,9.51,3.91,9.51h212.56c2.17,0,3.92-4.25,3.92-9.51s-1.75-9.51-3.92-9.51H1841.57C1839.41,642.36,1837.66,646.62,1837.66,651.87Z" transform="translate(-155 -127.15)"/><path class="cls-6" d="M1837.66,684.3c0,5.25,1.75,9.51,3.91,9.51h212.56c2.17,0,3.92-4.26,3.92-9.51s-1.75-9.51-3.92-9.51H1841.57C1839.41,674.79,1837.66,679,1837.66,684.3Z" transform="translate(-155 -127.15)"/><path class="cls-6" d="M1837.66,716.72c0,5.25,1.75,9.51,3.91,9.51h212.56c2.17,0,3.92-4.26,3.92-9.51s-1.75-9.51-3.92-9.51H1841.57C1839.41,707.21,1837.66,711.47,1837.66,716.72Z" transform="translate(-155 -127.15)"/><circle class="cls-4" cx="2111.9" cy="626.15" r="36.98" transform="translate(792.64 2368.94) rotate(-74.61)"/><circle class="cls-4" cx="2203.8" cy="626.15" r="36.98" transform="translate(925.49 2495.73) rotate(-76.5)"/><circle class="cls-4" cx="2140.69" cy="500.21" r="36.98"/><path class="cls-7" d="M2133.87,618.34a23.75,23.75,0,1,1-22-14.73c.41,0,.8,0,1.2,0v-6l-1.2,0a29.73,29.73,0,1,0,27.5,18.34Z" transform="translate(-155 -127.15)"/><path class="cls-7" d="M2216.05,647.46a23.75,23.75,0,1,1-12.65-43.85c.4,0,.8,0,1.19,0v-6l-1.19,0A29.77,29.77,0,1,0,2219,652.69Z" transform="translate(-155 -127.15)"/><path class="cls-7" d="M2315.51,640.72a23.75,23.75,0,1,1-19.64-37.11l1.2,0v-6l-1.2,0a29.77,29.77,0,1,0,24.52,46.64Z" transform="translate(-155 -127.15)"/><path class="cls-6" d="M2142,678.79h-60.25a6.85,6.85,0,0,0,0,13.7H2142a6.85,6.85,0,0,0,0-13.7Z" transform="translate(-155 -127.15)"/><path class="cls-6" d="M2233.93,678.79h-60.26a6.85,6.85,0,1,0,0,13.7h60.26a6.85,6.85,0,0,0,0-13.7Z" transform="translate(-155 -127.15)"/><path class="cls-6" d="M2265.57,692.49h60.25a6.85,6.85,0,0,0,0-13.7h-60.25a6.85,6.85,0,0,0,0,13.7Z" transform="translate(-155 -127.15)"/><rect class="cls-6" x="1919.93" y="572.94" width="73.95" height="54.02" rx="6.85"/><rect class="cls-6" x="2011.82" y="572.94" width="73.95" height="54.02" rx="6.85"/><rect class="cls-6" x="2103.72" y="572.94" width="73.95" height="54.02" rx="6.85"/><rect class="cls-7" x="1088.54" y="1139.56" width="30.45" height="329.26" transform="translate(2052.53 2481.23) rotate(180)"/><path class="cls-7" d="M970.43,1455.35h266.66a0,0,0,0,1,0,0v16.74a3.08,3.08,0,0,1-3.08,3.08H973.29a2.86,2.86,0,0,1-2.86-2.86v-17A0,0,0,0,1,970.43,1455.35Z" transform="translate(2052.53 2803.36) rotate(180)"/><rect class="cls-7" x="765" y="934" width="356.32" height="101.06" rx="34.8"/><path class="cls-49" d="M1273.34,1410.49s86.94,62.66,71.85,104.77c0,0-95.13-41-106.62-73.38s1.94-46.6,1.94-46.6Z" transform="translate(-155 -127.15)"/><path class="cls-50" d="M1260.28,1358l-14.22,41.1a14.3,14.3,0,0,0,5.55,16.77,37.54,37.54,0,0,0,11.76,4.55,16.64,16.64,0,0,0,18.41-8.35l17-32Z" transform="translate(-155 -127.15)"/><path class="cls-51" d="M1121.93,988.06s178.58,31,255.18,101.71-70.31,296.48-70.31,296.48-24.07-.14-53.24-25.15c0,0,87.1-169.76,12-219.27-84.4-55.65-181.66-68.19-181.66-68.19l36.27-80.12Z" transform="translate(-155 -127.15)"/><path class="cls-52" d="M1330.08,1492c-19.12-8.85-73.26-46.74-82.38-48.41s-25,9-25,9-3.85,6.92.27,19c12.71,15.37,40.92,44.68,78.85,55.61,27.9,8,47.41.54,59.57-8.22A80.6,80.6,0,0,0,1330.08,1492Z" transform="translate(-155 -127.15)"/><path class="cls-53" d="M1301.86,1527.22c-37.93-10.93-66.14-40.24-78.85-55.61,2.78,8.16,9.2,18.67,22.91,31,34,30.56,99,41.58,112.78,39.46,11.09-1.71,10-11.93,2.73-23.07C1349.27,1527.76,1329.76,1535.25,1301.86,1527.22Z" transform="translate(-155 -127.15)"/><path class="cls-54" d="M1206.53,1425.86c.21,5.27,11,23.34,17.27,33.47a16.42,16.42,0,0,0,13.9,7.78,42.17,42.17,0,0,0,11.49-1.38,10.65,10.65,0,0,0,7.15-13.25l-12.3-42Z" transform="translate(-155 -127.15)"/><path class="cls-55" d="M950,934.46s-39.66,106,0,138.29,134.27,68.55,155.4,132.78,57,189.06,105,233.27c0,0,33.73-3.27,46.35-16.7,0,0-27.34-186.35-45.37-234.17-15.61-41.41-38.61-101.18-82.7-134.58-12.61-9.56-10.42-24.71-4.57-39.42l10.66-26.8Z" transform="translate(-155 -127.15)"/><path class="cls-56" d="M1363.65,851.34c-66.49,4-45.77-102.22-44.58-106.44l-100.92,71.28s5.34,56.81,89.25,86.61c21.23,7.54,40.63,7.87,57.79,4.19A91.8,91.8,0,0,1,1363.65,851.34Z" transform="translate(-155 -127.15)"/><path class="cls-57" d="M1492.22,819.37c-24.77-17.23-52.85,0-52.85,0-33.13,21.67-57.64,30.88-75.72,32a91.8,91.8,0,0,0,1.54,55.64c37.11-8,63.67-34.84,75.21-48.63a12,12,0,0,1,16.59-1.81c5.16,4.07,10.17,9.65,9.26,15.52-1.79,11.58,11.64,15.26,12.66,11.06s-4.6-29.09-4.6-29.09,26.87,27,37.36,37.41,23.68,0,23.68,0S1517,836.61,1492.22,819.37Z" transform="translate(-155 -127.15)"/><path class="cls-58" d="M1053.59,580.84s96.74-38.74,276.78,109.9c0,0,15,31.12-1.37,58.83s-172.72,162.7-194.2,237.56c0,0-93.12,30.26-189.43-41.49C945.37,945.64,953.87,737.29,1053.59,580.84Z" transform="translate(-155 -127.15)"/><path class="cls-59" d="M1244.84,546.27,1197.21,604a19,19,0,0,0-2.5,20.38c6.61,13.48,22.3,33.11,57.08,30.4a29.23,29.23,0,0,0,24-16.39l33.3-68.84Z" transform="translate(-155 -127.15)"/><path class="cls-60" d="M978.7,828.09c-11.23-45.73,102.52-147.7,102.52-147.7l-27.63-99.55s-245.62,163.51-183,295c9,18.85,20.89,32,34.71,40.88C925.05,863.5,956.57,839.08,978.7,828.09Z" transform="translate(-155 -127.15)"/><path class="cls-61" d="M978.62,821.43a2.69,2.69,0,0,1-2.61-2c-11.48-46.77,98.65-146.14,103.34-150.35a2.69,2.69,0,0,1,3.59,4c-1.13,1-112.43,101.4-101.71,145.06a2.69,2.69,0,0,1-2,3.25A2.79,2.79,0,0,1,978.62,821.43Z" transform="translate(-155 -127.15)"/><path class="cls-62" d="M1363.63,479.84s.83,62.86-9.33,91.41-11.75,49.18-46.36,41.25-55-35.4-58.1-69.37c0,0-5.09-52.5,7.45-67.87S1363.63,479.84,1363.63,479.84Z" transform="translate(-155 -127.15)"/><path class="cls-63" d="M1269.25,527.78l4.08,1.71s-2.34-41.52,15-41.37,80.79,12.77,102.12-2.69c20.56-14.9,20.56-45.29,7.37-59.33a2.36,2.36,0,0,0-3.2-.14l-2.41,2a2.37,2.37,0,0,1-3.86-2.12,2.37,2.37,0,0,0-3.68-2.24c-6.47,4.58-21.16,10.28-51.38,3.68-42.89-9.36-76-4.3-88.16,22.93a2.37,2.37,0,0,1-4.14.37c-2.19-3-6.54-5.83-15-3.19-14.79,4.6-20.32,30.32-4.6,60a2.36,2.36,0,0,1-1.58,3.47c-5.53,1-14.82,5-1.81,21,13.31,16.37,23.88,19.64,28.13,20.27a2.39,2.39,0,0,0,2.61-1.57l8.72-25a2.38,2.38,0,0,1,3.17-1.41Z" transform="translate(-155 -127.15)"/><path class="cls-64" d="M1268.11,533.3s5.43-37.66-13.79-34.53-8.07,41.36,3.63,47.77Z" transform="translate(-155 -127.15)"/><path class="cls-65" d="M1220.08,927.41l.65,0,283-.31a12.67,12.67,0,1,0,0-25.33l-283,.31a12.66,12.66,0,0,0-.63,25.31Z" transform="translate(-155 -127.15)"/><path class="cls-66" d="M1758.08,670.49H1522.42a44.92,44.92,0,0,0-40.62,25.76l-109,231h292.87A27.29,27.29,0,0,0,1691.1,910l84.48-213.77A18.82,18.82,0,0,0,1758.08,670.49Z" transform="translate(-155 -127.15)"/><path class="cls-7" d="M1592.06,788.94c-5.11,15.87-1.34,31.27,8.42,34.42s21.82-7.18,26.92-23,1.34-31.28-8.42-34.42S1597.16,773.07,1592.06,788.94Z" transform="translate(-155 -127.15)"/><path class="cls-67" d="M1202.6,1000c49,46,48.84,105.79-21.46,159.45-6.42-3.93-8.85-8.3-5.36-19.87,53.4-56.43,36.19-95.09-6.8-113.5Z" transform="translate(-155 -127.15)"/><path class="cls-68" d="M1126.32,1039.8c41.61,49.42,43.08,93.92-40.65,139.58-7.3-11.69-6.61-19.08.49-23,61-46.82,38.71-70.18-.3-92.54Z" transform="translate(-155 -127.15)"/><path class="cls-69" d="M1082,1159.89c-.51,11.17,1.73,16.47,10.26,17.14,8.23,16.56,7.38,26.77-.24,32.22-13.24-12.81-24.17-27.18-30.2-44.86C1069,1160.05,1079.21,1155.51,1082,1159.89Z" transform="translate(-155 -127.15)"/><path class="cls-70" d="M1175.78,1139.6c-.5,11.1,1.72,16.38,10.2,17,8.18,16.47,7.34,26.61-.24,32-13.16-12.73-24-27-30-44.59C1162.87,1139.76,1173,1135.25,1175.78,1139.6Z" transform="translate(-155 -127.15)"/><path class="cls-71" d="M1024.11,956.24c1.62,37.11,26.5,79.83,62.11,111.93,20.59-1.62,42.1-7.72,57-21.59l-30.67-44.43,9.51-4.93,50.15,35c19.42-.84,30.22-12.83,43.14-25.33-23.37-33.1-64-42.87-83.32-91.65Z" transform="translate(-155 -127.15)"/><path class="cls-72" d="M1083.46,785.88c8.45-6.08,72.24,40.25,65.82,46.82,7.19,2.62-21.52,27.25-29.43,23.32C1117.8,855,1083.46,785.88,1083.46,785.88Z" transform="translate(-155 -127.15)"/><path class="cls-73" d="M988.41,807.85A35.92,35.92,0,0,1,994,799.5c11.42-12.49,32.29-11,47.66-14.69,5.91-1.43,12.83-4.87,19-4.17,11.39,1.29,24.41,2.43,34.36,8.57,14.06,8.66,19.42,24.93,24.67,39.57,6.54,18.24,9.45,36.11,13.09,55.14q5.13,26.8,10.25,53.59c-23.58,36.63-68.07,53.6-136.9,36.49-4.76-27.87-9-55.9-15.24-83.48-5.29-23.43-13.5-41.37-8-66A73.31,73.31,0,0,1,988.41,807.85Z" transform="translate(-155 -127.15)"/><path class="cls-74" d="M1002.59,740.77l10.61,55.48c13.67,6.07,33,2.93,47.36-8.5L1043,733.06Z" transform="translate(-155 -127.15)"/><path class="cls-75" d="M1098.61,694.89a145,145,0,0,1,4.19,20.32c3.33,25.85-15.52,50.6-41.63,55.59-31.67,6.05-63.12-19.28-70.25-56.59s12.76-72.45,44.42-78.51C1070,629.09,1090,664.16,1098.61,694.89Z" transform="translate(-155 -127.15)"/><path class="cls-76" d="M998.86,735.34c8.16,7.37,2.16,17.41-5.85,21.48-10.22,5.2-27.81-.91-36.09-7.48-15.35-12.18-18.95-33.46-21.49-52.77-.62-4.71-1.18-9.76,1-14,2-3.8,5.95-6.36,7.69-10.27,1.25-2.82,1.19-6,1.37-9.08.69-12,5.64-24,14.87-31.85s23-10.77,34-5.86c8.77-11.83,21.7-21.16,36.36-23.35s30.81,3.81,38.44,16.3c1.48,2.42,2.84,5.24,5.5,6.32a19.21,19.21,0,0,0,3.72.78c6.48,1.19,11.42,7,12.84,13.33,1.55,7-5.24,14.29-.17,19.31,7,6.93,10.22,20.27,4.61,28.93a132.1,132.1,0,0,1-7.8-11.27c-2.68-4.09-4.52-11-7.85-14.31.34.34-11.61,6.14-13.42,6.13-3.63,0-5-1.4-7.62-3.52-6.41-5.16-15.34-10.93-17.85.47a10,10,0,0,1-10.47,7.43c4.68,4.76,5,12.49,2.57,18.7s-7.12,11.27-11.71,16.16l-10.83,11.54c-4.57,4.87-10.38,10.19-17,9C992.34,730.56,996.35,733.07,998.86,735.34Z" transform="translate(-155 -127.15)"/><path class="cls-77" d="M981,739c4.88,5.36,12.67,8.22,19.34,10.9,1.84.73,3.81,1.48,5.75,1.08,8.36-1.71-6.5-20.43-9.58-22.21a31.86,31.86,0,0,0-8.31-3.8,11,11,0,0,0-8.85,1.22C973.71,730.08,977.62,735.27,981,739Z" transform="translate(-155 -127.15)"/><path class="cls-78" d="M1093.1,957.88c-8.54,10.28-105.27-67.22-103.35-74.36l26.87-35.22c23.78,40.82,49.17,73.81,78.42,88.08Z" transform="translate(-155 -127.15)"/><path class="cls-79" d="M1031.05,864.67c-7.92,11.22-22.92,19.39-45.49,24.3-14.47-44.58-9.18-75,13-93.42C1015,822.71,1027,846.59,1031.05,864.67Z" transform="translate(-155 -127.15)"/><path class="cls-80" d="M1031.05,865.17a.5.5,0,0,1-.49-.38,187.68,187.68,0,0,0-26.91-59.71.51.51,0,0,1,.14-.7.5.5,0,0,1,.7.14,188.88,188.88,0,0,1,27,60,.5.5,0,0,1-.36.61Z" transform="translate(-155 -127.15)"/><path class="cls-81" d="M1090.09,959s-9.42-20.67-8.76-28.77,2.88-18.77,17-19.2,31.46,2.26,31.46,2.26,1.1,10.18-10,8.94l7.43,3.77s.61,8.2-9,5.6l7.29,5.49s-2.52,7.31-9.82,4.33S1109,958.13,1090.09,959Z" transform="translate(-155 -127.15)"/><path class="cls-82" d="M1151,824.16s-134.87,52.36-167.79,13a22.13,22.13,0,0,1-4.5-9c-22.13,11-53.65,35.41-73.43,88.64,70.93,45.33,192.18-25.21,225-46a24.47,24.47,0,0,1,18.12-3.32c12.64,2.62,34.48,6.48,46.26,4.66,17.24-2.65,42,58.14,69.93,39.39C1264.54,911.45,1240.62,805.78,1151,824.16Z" transform="translate(-155 -127.15)"/><path class="cls-7" d="M1769.12,1534.33a12.39,12.39,0,0,0,4.7-.94,11.38,11.38,0,0,0,6.22-15.13L1530.66,957a12.05,12.05,0,0,0-15.63-6,11.38,11.38,0,0,0-6.22,15.13l249.38,561.26A11.93,11.93,0,0,0,1769.12,1534.33Z" transform="translate(-155 -127.15)"/><path class="cls-7" d="M1488.18,1534.33a11.92,11.92,0,0,0,10.93-7L1748.5,966.1a11.39,11.39,0,0,0-6.23-15.13,12,12,0,0,0-15.62,6l-249.39,561.26a11.39,11.39,0,0,0,6.23,15.13A12.31,12.31,0,0,0,1488.18,1534.33Z" transform="translate(-155 -127.15)"/><path class="cls-7" d="M997.17,1534.33a12.31,12.31,0,0,0,4.69-.94,11.38,11.38,0,0,0,6.22-15.13L758.7,957a12,12,0,0,0-15.62-6,11.39,11.39,0,0,0-6.23,15.13l249.39,561.26A11.91,11.91,0,0,0,997.17,1534.33Z" transform="translate(-155 -127.15)"/><path class="cls-7" d="M716.23,1534.33a11.9,11.9,0,0,0,10.92-7L976.54,966.1A11.38,11.38,0,0,0,970.32,951a12.06,12.06,0,0,0-15.63,6L705.31,1518.26a11.38,11.38,0,0,0,6.22,15.13A12.36,12.36,0,0,0,716.23,1534.33Z" transform="translate(-155 -127.15)"/><path class="cls-83" d="M687,939.67a13.68,13.68,0,0,1,2.37-10.38,10.79,10.79,0,0,1,8.65-4.57H1832.51a12.65,12.65,0,0,1,10.88,6.67,16,16,0,0,1,.85,13.85L1831.94,975c-2.81,6.82-8.91,11.19-15.63,11.19H705.77c-6.24,0-11.61-5-12.79-11.82Z" transform="translate(-155 -127.15)"/><path class="cls-7" d="M2120.51,1451.32s80.2-185.27,19.48-380.46c-.39-1.27-2.65-1-2.82.31C2122.54,1189.22,2118.17,1317.07,2120.51,1451.32Z" transform="translate(-155 -127.15)"/><path class="cls-84" d="M2120.83,1447.42a1,1,0,0,1-.28,0,1,1,0,0,1-.71-1.27c14.17-50.35,19.57-136.06,21.6-199.1,2.2-68.34,1-125.47,1-126a1,1,0,0,1,1-1.06h0a1,1,0,0,1,1,1c0,.57,1.19,57.77-1,126.16-2,63.15-7.44,149-21.67,199.59A1,1,0,0,1,2120.83,1447.42Z" transform="translate(-155 -127.15)"/><path class="cls-7" d="M2102.15,1421.12s49.54-227.32-44.09-457.35a1.44,1.44,0,0,0-2.78.55C2060.33,1106.79,2077.34,1260.34,2102.15,1421.12Z" transform="translate(-155 -127.15)"/><path class="cls-84" d="M2101.64,1416.22h-.1a1,1,0,0,1-.92-1.12c11.12-117.37-31.26-388.64-31.69-391.36a1,1,0,0,1,.86-1.18,1,1,0,0,1,1.17.85c.43,2.73,42.86,274.25,31.71,391.88A1,1,0,0,1,2101.64,1416.22Z" transform="translate(-155 -127.15)"/><path class="cls-7" d="M2094.29,1482.76s23.73-198.3-94.18-376.76c-.77-1.17-2.92-.46-2.68.89C2018.19,1225.6,2052,1351.75,2094.29,1482.76Z" transform="translate(-155 -127.15)"/><path class="cls-84" d="M2093.13,1478.9a1,1,0,0,1-1-1c-1-52.29-21.28-137.38-38.06-199.55-18.19-67.41-36.37-123.14-36.55-123.7a1,1,0,1,1,2-.64c.18.56,18.37,56.34,36.58,123.79,16.81,62.29,37.07,147.56,38.13,200.06a1,1,0,0,1-1,1.05Z" transform="translate(-155 -127.15)"/><path class="cls-6" d="M2045.49,1373.49h109a11.11,11.11,0,0,1,10.82,13.61c-7,30.22-15.33,60.87-32.43,92a18,18,0,0,1-15.73,9.35h-35.57a17.54,17.54,0,0,1-15.45-9.24c-13.7-25.46-26.88-55.81-33.39-90.25A13,13,0,0,1,2045.49,1373.49Z" transform="translate(-155 -127.15)"/><path class="cls-85" d="M1611.13,1346.44l9.87,148.3a48.34,48.34,0,0,0,49.7,45l355.61-10.11a34.87,34.87,0,0,0,33.73-30.85c4.27-37.68,9.05-105-1.08-167.71Z" transform="translate(-155 -127.15)"/><path class="cls-86" d="M1678.65,1525.82a1,1,0,0,1,0-2l8-.23a.91.91,0,0,1,1,1,1,1,0,0,1-1,1l-8,.22Zm26.73-.76a1,1,0,0,1,0-2l8-.23a1,1,0,0,1,1,1,1,1,0,0,1-1,1l-8,.22Zm26.74-.76a1,1,0,0,1,0-2l8-.23a1,1,0,0,1,.06,2l-8,.22Zm26.74-.75a1,1,0,0,1,0-2l8-.23a1,1,0,0,1,.06,2l-8,.23Zm-98.65-.18a1.26,1.26,0,0,1-.33,0,48,48,0,0,1-7.47-3.34,1,1,0,0,1,1-1.76,44.85,44.85,0,0,0,7.15,3.2,1,1,0,0,1-.33,1.95Zm125.38-.58a1,1,0,0,1,0-2l8-.23a1,1,0,1,1,.06,2l-8,.23Zm26.74-.76a1,1,0,0,1,0-2l8-.23a1,1,0,0,1,1,1,1,1,0,0,1-1,1l-8,.23Zm26.73-.76a1,1,0,0,1,0-2l8-.23a.93.93,0,0,1,1,1,1,1,0,0,1-1,1l-8,.23Zm26.74-.76a1,1,0,0,1,0-2l8-.23a.94.94,0,0,1,1,1,1,1,0,0,1-1,1l-8,.23Zm26.74-.76a1,1,0,0,1,0-2l8-.23a1,1,0,0,1,1,1,1,1,0,0,1-1,1l-8,.23Zm26.73-.76a1,1,0,0,1,0-2l8-.23a1,1,0,1,1,.06,2l-8,.23Zm26.74-.76a1,1,0,0,1,0-2l8-.23a1,1,0,0,1,1,1,1,1,0,0,1-1,1l-8,.23Zm26.73-.76a1,1,0,0,1,0-2l8-.23a1,1,0,0,1,1,1,1,1,0,0,1-1,1l-8,.23Zm26.74-.76a1,1,0,0,1,0-2l8-.23a1,1,0,0,1,1,1,1,1,0,0,1-1,1l-8,.23Zm26.48-2.6a1,1,0,0,1-.94-.64,1,1,0,0,1,.58-1.3,32.2,32.2,0,0,0,6.88-3.6,1,1,0,0,1,1.14,1.65,34.19,34.19,0,0,1-7.31,3.83A1,1,0,0,1,2026,1514.11ZM1638.8,1508a1,1,0,0,1-.8-.39,46.62,46.62,0,0,1-4.42-6.89,1,1,0,1,1,1.77-.93,46,46,0,0,0,4.24,6.6,1,1,0,0,1-.79,1.61Zm406-11.88a1.14,1.14,0,0,1-.4-.08,1,1,0,0,1-.53-1.32,31.63,31.63,0,0,0,2.15-7.45,1,1,0,0,1,1.15-.83,1,1,0,0,1,.83,1.14,33.5,33.5,0,0,1-2.28,7.93A1,1,0,0,1,2044.75,1496.11Zm-415.38-12.74a1,1,0,0,1-1-.93l-.53-8a1,1,0,0,1,.93-1.07,1,1,0,0,1,1.07.94l.53,8a1,1,0,0,1-.92,1.08Zm419.54-13.58h-.09a1,1,0,0,1-.91-1.09q.34-3.87.68-8a1,1,0,0,1,2,.16c-.22,2.75-.45,5.41-.68,8A1,1,0,0,1,2048.91,1469.79Zm-421.32-13.1a1,1,0,0,1-1-.94l-.53-8a1,1,0,0,1,.94-1.06,1,1,0,0,1,1.06.93l.54,8a1,1,0,0,1-.94,1.06Zm423.25-13.57h-.06a1,1,0,0,1-.94-1q.21-3.93.39-8a1,1,0,0,1,1-1,1,1,0,0,1,1,1c-.12,2.72-.25,5.39-.39,8A1,1,0,0,1,2050.84,1443.12Zm-425-13.12a1,1,0,0,1-1-.94l-.53-8a1,1,0,0,1,2-.13l.53,8a1,1,0,0,1-.93,1.06Zm426-13.61h0a1,1,0,0,1-1-1q.06-4,.08-8a1,1,0,0,1,1-1,1,1,0,0,1,1,1q0,4.07-.08,8A1,1,0,0,1,2051.79,1416.39ZM1624,1403.31a1,1,0,0,1-1-.94l-.53-8a1,1,0,1,1,2-.14l.53,8a1,1,0,0,1-.93,1.07Zm427.62-13.67a1,1,0,0,1-1-1c-.07-2.66-.16-5.32-.27-8a1,1,0,0,1,1-1.05,1.07,1.07,0,0,1,1,1q.17,4,.27,8a1,1,0,0,1-1,1Zm-429.39-13a1,1,0,0,1-1-.93l-.54-8a1,1,0,0,1,.94-1.07,1,1,0,0,1,1.07.94l.53,8a1,1,0,0,1-.94,1.07Zm428-13.68a1,1,0,0,1-1-.93c-.21-2.65-.43-5.31-.68-8a1,1,0,0,1,.9-1.09,1,1,0,0,1,1.1.91c.25,2.67.47,5.34.68,8a1,1,0,0,1-.93,1.08Zm-429.82-13a1,1,0,0,1-1-.93l-.6-9,8.65-.3a1,1,0,0,1,1,1,1,1,0,0,1-1,1l-6.58.22.46,7a1,1,0,0,1-.93,1.07Zm25.8-8.91a1,1,0,0,1,0-2l8-.28a1,1,0,0,1,1,1,1,1,0,0,1-1,1l-8,.27Zm26.72-.91a1,1,0,0,1,0-2l8-.27a1,1,0,0,1,1,1,1,1,0,0,1-1,1l-8,.28Zm26.74-.92a1,1,0,0,1,0-2l8-.27a1,1,0,1,1,.07,2l-8,.28Zm26.73-.92a1,1,0,0,1,0-2l8-.28a1,1,0,0,1,1,1,1,1,0,0,1-1,1l-8,.27Zm26.73-.92a1,1,0,0,1,0-2l8-.28a1,1,0,0,1,1,1,1,1,0,0,1-1,1l-8,.27Zm26.73-.91a1,1,0,0,1,0-2l8-.27a1,1,0,0,1,1,1,1,1,0,0,1-1,1l-8,.28Zm267.55-.1a1,1,0,0,1-1-.86q-.54-4-1.17-7.92a1,1,0,0,1,.84-1.15,1,1,0,0,1,1.15.83c.41,2.65.81,5.3,1.17,8a1,1,0,0,1-.85,1.13Zm-240.82-.82a1,1,0,0,1,0-2l8-.27a1,1,0,0,1,1,1,1,1,0,0,1-1,1l-8,.27Zm26.73-.92a1,1,0,0,1,0-2l8-.28a.93.93,0,0,1,1,1,1,1,0,0,1-1,1l-8,.27Zm26.73-.91a1,1,0,0,1,0-2l8-.28a1,1,0,0,1,1,1,1,1,0,0,1-1,1l-8,.28Zm26.73-.92a1,1,0,0,1,0-2l8-.27a1,1,0,0,1,1,1,1,1,0,0,1-1,1l-8,.28Zm26.74-.92a1,1,0,0,1,0-2l8-.27a1,1,0,0,1,1,1,1,1,0,0,1-1,1l-8,.27Zm26.73-.92a1,1,0,0,1,0-2l8-.28a1,1,0,0,1,1,1,1,1,0,0,1-1,1l-8,.27Zm26.73-.91a1,1,0,0,1,0-2l8-.27a1,1,0,0,1,1,1,1,1,0,0,1-1,1l-8,.28Zm26.73-.92a1,1,0,0,1,0-2l8-.27a.94.94,0,0,1,1,1,1,1,0,0,1-1,1l-8,.28Zm26.73-.92a1,1,0,0,1,0-2l8-.28a1,1,0,0,1,1,1,1,1,0,0,1-1,1l-8,.27Z" transform="translate(-155 -127.15)"/><path class="cls-87" d="M1709.55,1229.94l.67-11.48a8.81,8.81,0,0,1,6.5-5.37c11-2.15,38.38-6.19,52,3.24l2.43,13.24Z" transform="translate(-155 -127.15)"/><path class="cls-88" d="M1743.77,1217.74a15.93,15.93,0,0,1-7.67.25,6.92,6.92,0,0,1-5.51-6.52l-1.23-35.86,18.25-.62,1.23,35.82A7,7,0,0,1,1743.77,1217.74Z" transform="translate(-155 -127.15)"/><path class="cls-89" d="M1886.27,1223.88l.68-11.49a8.83,8.83,0,0,1,6.5-5.37c11-2.14,38.38-6.18,52,3.25l2.43,13.23Z" transform="translate(-155 -127.15)"/><path class="cls-90" d="M1920.5,1211.67a15.93,15.93,0,0,1-7.67.26,6.93,6.93,0,0,1-5.51-6.53l-1.36-39.63,18.25-.63,1.36,39.61A7,7,0,0,1,1920.5,1211.67Z" transform="translate(-155 -127.15)"/><path class="cls-91" d="M1727.81,1184.46l196-13.22a9.48,9.48,0,0,0,8.78-8.08,80.15,80.15,0,0,0-.25-24.89,22.65,22.65,0,0,0-22.59-18.41c-36.64.39-129.83,3.61-180.49,25.69a18,18,0,0,0-10.41,12.82,43.4,43.4,0,0,0,.21,19.94A8.43,8.43,0,0,0,1727.81,1184.46Z" transform="translate(-155 -127.15)"/><path class="cls-92" d="M1724,1176.19a2.66,2.66,0,0,1-2.64-2.31,47.82,47.82,0,0,1,.69-15.48,18.2,18.2,0,0,1,12-13c10.91-3.61,31.8-9.83,49-10.9a2.68,2.68,0,1,1,.33,5.34c-16.63,1-37,7.11-47.68,10.64a12.81,12.81,0,0,0-8.42,9.15,43.24,43.24,0,0,0-.6,13.55,2.69,2.69,0,0,1-2.3,3A2.17,2.17,0,0,1,1724,1176.19Z" transform="translate(-155 -127.15)"/><path class="cls-93" d="M1618.35,1228.61c63.37-3,337.51-15.28,417.5-8.4a16.21,16.21,0,0,1,14.37,12.08c5.44,21.12,16.61,70.23,17.17,119.27a14.22,14.22,0,0,1-11.17,13.94l-180.66,40.64-64.59,2.21-195.07-31.86a15.15,15.15,0,0,1-12.7-13.65c-2.11-24.61-6.06-82.38-.67-119.85A16.76,16.76,0,0,1,1618.35,1228.61Z" transform="translate(-155 -127.15)"/><path class="cls-94" d="M1812,1393.64l-.17,0-7.91-1.29a1,1,0,0,1,.32-2l7.92,1.29a1,1,0,0,1-.16,2Zm11.53-.4a1,1,0,0,1,0-2l8-.27a1,1,0,0,1,1,1,1,1,0,0,1-1,1l-8,.27Zm26.73-.92a1,1,0,0,1,0-2l8-.28a1,1,0,0,1,1,1,1,1,0,0,1-1,1l-8,.27Zm26.65-1.55a1,1,0,0,1-.22-2l7.83-1.76a1,1,0,1,1,.44,2l-7.83,1.76A.82.82,0,0,1,1876.89,1390.77Zm-91.31-1.45h-.16l-7.92-1.29a1,1,0,1,1,.32-2l7.92,1.29a1,1,0,0,1-.16,2Zm-26.4-4.31H1759l-7.92-1.29a1,1,0,0,1-.83-1.16,1,1,0,0,1,1.16-.82l7.91,1.29a1,1,0,0,1-.16,2Zm143.81-.11a1,1,0,0,1-1-.78,1,1,0,0,1,.76-1.2l7.82-1.76a1,1,0,0,1,.45,2l-7.83,1.76A.86.86,0,0,1,1903,1384.9Zm-170.2-4.2h-.17l-7.92-1.3a1,1,0,0,1-.82-1.15,1,1,0,0,1,1.15-.83l7.92,1.3a1,1,0,0,1-.16,2Zm196.29-1.67a1,1,0,0,1-.22-2l7.83-1.76a1,1,0,1,1,.44,2l-7.83,1.76A.82.82,0,0,1,1929.08,1379Zm-222.69-2.64h-.16l-7.92-1.3a1,1,0,0,1-.83-1.15,1,1,0,0,1,1.15-.83l7.92,1.3a1,1,0,0,1-.16,2Zm248.78-3.23a1,1,0,0,1-.22-2l7.83-1.76a1,1,0,1,1,.44,2l-7.82,1.76A.9.9,0,0,1,1955.17,1373.16ZM1680,1372.08l-.16,0-7.92-1.29a1,1,0,1,1,.33-2l7.91,1.29a1,1,0,0,1-.16,2Zm-26.39-4.31-.17,0-7.92-1.29a1,1,0,0,1,.33-2l7.92,1.29a1,1,0,0,1-.16,2Zm327.67-.48a1,1,0,0,1-.22-2l7.83-1.76a1,1,0,0,1,1.2.76,1,1,0,0,1-.76,1.2l-7.83,1.76Zm-354.07-3.84H1627l-7.92-1.29a1,1,0,1,1,.32-2l7.92,1.29a1,1,0,0,1-.16,2Zm380.16-2a1,1,0,0,1-.22-2l7.83-1.76a1,1,0,1,1,.44,2l-7.83,1.76A.78.78,0,0,1,2007.36,1361.42Zm26.1-5.87a1,1,0,0,1-.22-2l7.83-1.76a1,1,0,1,1,.44,2l-7.83,1.76Zm-416-11.65a1,1,0,0,1-1-.94c-.17-2.56-.34-5.24-.5-8a1,1,0,0,1,.94-1.06,1,1,0,0,1,1.06.95c.16,2.77.33,5.45.5,8a1,1,0,0,1-.94,1.07Zm434.06-.51a1,1,0,0,1-1-1c-.1-2.67-.24-5.34-.4-8a1,1,0,1,1,2-.12c.16,2.67.3,5.36.4,8a1,1,0,0,1-1,1ZM1616,1317.18a1,1,0,0,1-1-1c-.1-2.64-.18-5.32-.26-8a1,1,0,0,1,1-1,1.08,1.08,0,0,1,1,1q.11,4,.26,8a1,1,0,0,1-1,1Zm433.51-.46a1,1,0,0,1-1-.9c-.28-2.68-.59-5.34-.91-8a1,1,0,0,1,.88-1.12,1,1,0,0,1,1.11.87q.49,4,.91,8a1,1,0,0,1-.89,1.1Zm-434-26.29a1,1,0,0,1-1-1q0-4,.07-8a.93.93,0,0,1,1-1,1,1,0,0,1,1,1q-.06,4-.07,8A1,1,0,0,1,1615.49,1290.43Zm430.5-.24a1,1,0,0,1-1-.84q-.63-4-1.31-7.91a1,1,0,1,1,2-.34c.45,2.58.89,5.23,1.32,7.93a1,1,0,0,1-.84,1.15Zm-4.8-26.32a1,1,0,0,1-1-.8c-.57-2.74-1.13-5.36-1.67-7.84a1,1,0,1,1,2-.43q.81,3.73,1.67,7.86a1,1,0,0,1-.78,1.19Zm-424.89-.17h-.07a1,1,0,0,1-.94-1.07c.18-2.73.39-5.42.64-8a1,1,0,0,1,2,.19c-.25,2.59-.46,5.26-.64,8A1,1,0,0,1,1616.3,1263.7Zm10.43-18.79a1,1,0,0,1,0-2l8-.37a1,1,0,0,1,1,1,1,1,0,0,1-1,1l-8,.37Zm26.74-1.21a1,1,0,0,1,0-2l8-.36a1.06,1.06,0,0,1,1,1,1,1,0,0,1-1,1l-8,.35Zm26.73-1.15a1,1,0,0,1,0-2l8-.34a1,1,0,0,1,1,1,1,1,0,0,1-1,1l-8,.34Zm26.74-1.11a1,1,0,0,1,0-2l8-.33a1.06,1.06,0,0,1,1,1,1,1,0,0,1-1,1l-8,.32Zm26.73-1a1,1,0,0,1,0-2l8-.31a1,1,0,0,1,1,1,1,1,0,0,1-1,1l-8,.3Zm26.74-1a1,1,0,0,1,0-2l8-.29a1.06,1.06,0,0,1,1,1,1,1,0,0,1-1,1l-8,.29Zm26.73-.93a1,1,0,0,1,0-2l8-.26a1,1,0,0,1,1,1,1,1,0,0,1-1,1l-8,.27Zm248-.68a1,1,0,0,1-1-.76l-.06-.23q-3-.25-6.43-.48a1,1,0,0,1-.93-1.06,1,1,0,0,1,1.06-.94c2.4.16,4.65.32,6.73.51a1.55,1.55,0,0,1,1.42,1.11l.15.6a1,1,0,0,1-.72,1.22Zm-.76-1h0Zm-220.55.78a1,1,0,0,1,0-2l8-.24a1,1,0,0,1,1,1,1,1,0,0,1-1,1l-8,.25Zm26.73-.78a1,1,0,0,1,0-2l8-.22a1,1,0,0,1,1,1,1,1,0,0,1-1,1l-8,.22Zm26.74-.69a1,1,0,0,1,0-2l8-.19h0a1,1,0,0,1,0,2l-8,.19Zm26.74-.58a1,1,0,0,1,0-2l8-.15a1,1,0,1,1,0,2l-8,.14Zm115-.1h0c-2.56-.08-5.23-.16-8-.22a1,1,0,0,1-1-1,1,1,0,0,1,1-1l8,.22a1,1,0,0,1,0,2Zm-88.26-.33a1,1,0,0,1,0-2l8-.09h0a1,1,0,0,1,0,2l-8,.1Zm61.51-.2h0l-8-.07a1,1,0,0,1,0-2h0q4.13,0,8,.06a1,1,0,1,1,0,2Zm-34.77-.06a1,1,0,0,1-1-1,1,1,0,0,1,1-1l8,0h0a1,1,0,0,1,0,2l-8,0Z" transform="translate(-155 -127.15)"/><path class="cls-95" d="M1870.41,1433.47l-56.58,1.94a14.65,14.65,0,0,1-15-12.35l-8.4-54.23a14.6,14.6,0,0,1,14-16.8l68-2.34a14.62,14.62,0,0,1,15.13,15.37l-3,54.62A14.63,14.63,0,0,1,1870.41,1433.47Z" transform="translate(-155 -127.15)"/><g class="cls-96"><path class="cls-97" d="M1863.11,1423.69l-43.07,1.48a11.14,11.14,0,0,1-11.4-9.4l-6.4-41.27a11.12,11.12,0,0,1,10.64-12.79l51.74-1.78a11.12,11.12,0,0,1,11.52,11.69l-2.27,41.58A11.14,11.14,0,0,1,1863.11,1423.69Z" transform="translate(-155 -127.15)"/></g></svg>